<?xml version="1.0" standalone="no"?>
<!DOCTYPE svg PUBLIC "-//W3C//DTD SVG 20010904//EN"
 "http://www.w3.org/TR/2001/REC-SVG-20010904/DTD/svg10.dtd">
<svg version="1.0" xmlns="http://www.w3.org/2000/svg"
 width="2000.000000pt" height="2000.000000pt" viewBox="0 0 2000.000000 2000.000000"
 preserveAspectRatio="xMidYMid meet">

<g transform="translate(0.000000,2000.000000) scale(0.100000,-0.100000)"
fill="#8acaff" stroke="none">
<path d="M10579 18587 c-20 -8 -90 -44 -155 -82 -202 -115 -1224 -704 -1319
-759 -49 -29 -169 -98 -265 -153 -96 -56 -337 -194 -535 -308 -198 -114 -447
-258 -554 -319 -106 -61 -209 -126 -227 -145 -65 -66 -65 -63 -62 -602 l3
-486 30 -49 c24 -38 48 -59 109 -96 87 -52 144 -65 208 -48 24 7 546 302 1161
657 615 354 1124 646 1130 649 7 2 22 -13 34 -33 17 -30 47 -53 143 -107 71
-41 125 -65 130 -60 4 5 45 115 90 244 l81 235 150 85 c168 95 205 128 214
192 3 24 5 255 3 513 -3 460 -3 471 -25 511 -30 57 -72 94 -147 132 -75 38
-145 48 -197 29z m-449 -982 c16 -19 6 -57 -23 -89 -12 -14 -150 -99 -307
-189 -157 -90 -616 -354 -1020 -587 -404 -233 -747 -426 -761 -428 -34 -5 -43
18 -25 61 18 44 26 49 226 164 96 55 515 296 930 535 826 476 952 548 961 548
4 0 12 -7 19 -15z m458 -57 c2 -20 -6 -36 -30 -61 -20 -22 -348 -217 -853
-507 -451 -260 -1010 -583 -1243 -717 -232 -135 -431 -247 -441 -250 -13 -3
-23 2 -31 16 -13 26 8 77 43 102 12 9 199 118 415 242 623 361 1142 660 1632
944 475 275 502 287 508 231z"/>
<path d="M14763 17266 c-175 -43 -321 -178 -385 -356 -23 -64 -23 -70 -26
-598 l-3 -532 64 35 c83 45 200 75 309 78 l88 2 0 88 c0 48 -3 87 -7 87 -5 0
-39 -5 -78 -11 -132 -19 -199 10 -249 110 -42 84 -51 144 -51 346 0 209 14
300 61 406 29 64 71 112 78 88 2 -8 9 -34 16 -59 35 -131 149 -270 275 -336
85 -45 198 -84 264 -90 55 -6 58 -5 93 30 31 31 42 36 82 36 94 0 136 -48 136
-157 0 -68 -28 -133 -72 -164 -41 -29 -110 -36 -143 -15 l-25 16 0 -365 0
-365 23 0 c33 1 98 33 130 66 46 46 60 83 65 172 4 79 6 82 26 76 43 -13 111
-45 140 -68 17 -12 37 -26 44 -30 11 -7 13 89 10 536 -4 600 -3 582 -71 713
-65 123 -216 235 -355 264 -72 15 -374 13 -439 -3z"/>
<path d="M14458 16719 c-11 -6 -18 -22 -18 -40 l0 -30 31 18 c44 26 56 42 38
54 -18 11 -30 11 -51 -2z"/>
<path d="M14470 16585 c-26 -32 13 -81 48 -59 34 22 22 74 -18 74 -10 0 -23
-7 -30 -15z"/>
<path d="M14772 16564 c-27 -19 -28 -36 -3 -58 25 -23 61 -6 61 29 0 33 -30
49 -58 29z"/>
<path d="M10564 15766 c-17 -8 -104 -56 -195 -108 -488 -282 -730 -421 -1174
-678 -269 -156 -546 -315 -615 -355 -528 -303 -729 -421 -753 -443 -15 -14
-36 -44 -47 -67 -19 -40 -20 -62 -20 -614 0 -555 1 -573 20 -612 29 -55 68
-90 151 -132 77 -40 143 -47 204 -24 17 7 276 153 575 326 300 173 739 426
975 562 l430 248 23 -38 c18 -30 48 -54 137 -105 63 -36 121 -66 128 -66 14 0
34 53 148 383 l33 98 134 77 c148 84 186 116 213 177 17 37 19 79 19 595 0
342 -4 569 -10 591 -26 94 -180 199 -289 199 -31 -1 -70 -7 -87 -14z m134
-601 c6 -41 -40 -88 -148 -151 -691 -405 -2159 -1248 -2174 -1248 -10 -1 -23
7 -30 17 -9 14 -7 25 10 54 17 29 50 54 150 112 1507 877 2142 1241 2164 1238
17 -1 26 -9 28 -22z m-530 -605 c6 -60 -11 -71 -649 -439 -338 -195 -729 -421
-870 -503 -141 -81 -266 -148 -278 -148 -12 0 -24 7 -27 15 -8 20 12 68 39 93
42 38 1742 1012 1762 1010 13 -2 21 -12 23 -28z m450 -35 c2 -21 -5 -39 -25
-62 -18 -20 -403 -248 -1078 -639 -577 -333 -1071 -618 -1098 -631 -39 -21
-50 -23 -63 -12 -18 15 -12 50 15 87 22 31 2200 1292 2226 1289 14 -1 21 -11
23 -32z"/>
<path d="M13723 14899 c-7 -7 -13 -23 -13 -36 0 -49 110 -334 195 -503 64
-130 92 -170 130 -185 43 -19 239 -54 342 -62 82 -6 82 -6 88 20 4 14 1 47 -7
74 l-14 48 -84 7 c-206 16 -366 114 -437 265 -27 59 -27 96 1 101 10 2 49 -10
87 -28 106 -49 274 -72 294 -40 6 10 -73 186 -107 238 -15 21 -42 47 -62 56
-83 39 -387 72 -413 45z"/>
<path d="M16565 11344 c-33 -8 -110 -39 -170 -68 -267 -131 -471 -348 -639
-685 -53 -104 -56 -114 -64 -218 -6 -59 -9 -109 -7 -111 1 -1 26 37 54 86 154
262 411 537 659 706 144 98 344 188 366 166 14 -14 1 -23 -59 -45 -289 -104
-628 -392 -858 -725 -36 -53 -91 -143 -122 -200 l-56 -105 -5 -190 c-4 -146
-9 -199 -22 -230 -24 -57 -241 -345 -288 -382 -72 -57 -123 -77 -202 -81 -86
-5 -107 6 -98 52 l6 30 -40 -39 c-63 -61 -102 -128 -98 -167 5 -50 67 -80 175
-86 100 -5 192 20 282 78 66 43 103 84 157 178 22 36 72 101 112 144 64 69 72
82 72 117 0 35 7 45 76 111 94 89 255 195 379 250 52 22 166 67 255 100 88 32
189 74 223 93 180 98 167 293 -24 361 -70 25 -202 26 -284 2 -54 -16 -196 -81
-235 -108 -8 -6 5 8 30 31 65 59 212 156 390 256 269 152 290 165 349 223 76
74 112 147 119 233 3 49 0 75 -13 102 -25 53 -86 103 -146 121 -65 20 -193 19
-274 0z m13 -996 c3 -13 -8 -18 -55 -23 -206 -24 -434 -139 -612 -310 -71 -69
-176 -194 -210 -252 -9 -16 -12 -16 -21 -3 -15 22 -15 22 50 110 192 258 458
435 733 485 88 16 111 15 115 -7z"/>
<path d="M11555 10443 c-86 -31 -8334 -4800 -8383 -4847 -24 -22 -57 -70 -75
-106 -32 -65 -32 -65 -32 -225 0 -160 0 -160 32 -225 18 -36 51 -84 75 -106
24 -23 135 -95 248 -160 113 -65 374 -215 580 -334 206 -120 449 -260 540
-312 91 -52 309 -178 485 -280 176 -102 397 -229 490 -283 94 -54 357 -206
585 -338 228 -131 537 -309 685 -395 149 -85 322 -185 385 -222 63 -37 190
-110 281 -163 189 -110 256 -133 356 -124 34 4 76 12 95 20 18 8 978 560 2133
1227 2185 1262 2655 1533 4855 2803 749 432 1345 783 1372 806 30 27 59 67 80
109 l33 67 0 165 0 165 -33 64 c-19 35 -52 81 -75 103 -26 24 -850 505 -2192
1280 -1182 682 -2185 1259 -2227 1281 -69 36 -86 41 -160 44 -62 3 -96 -1
-133 -14z m-290 -632 c22 -10 684 -389 1470 -843 787 -454 1687 -972 2000
-1152 314 -181 580 -339 593 -353 12 -13 22 -32 22 -42 0 -10 -10 -27 -22 -39
-13 -11 -468 -278 -1013 -592 -544 -315 -1165 -674 -1380 -798 -214 -124 -952
-550 -1640 -947 -687 -397 -1560 -901 -1939 -1120 -480 -277 -703 -401 -733
-406 -26 -5 -63 -5 -87 1 -25 5 -598 330 -1456 826 -778 449 -1685 971 -2015
1162 -330 190 -608 352 -619 361 -38 33 -37 83 2 107 9 6 238 138 507 294 270
155 690 399 935 540 426 246 1007 582 2475 1430 369 213 832 481 1030 595 198
114 662 382 1030 595 369 213 679 390 690 393 44 11 112 6 150 -12z"/>
<path d="M14920 10125 c0 -50 -23 -90 -91 -160 -32 -33 -105 -120 -161 -194
-82 -107 -114 -140 -155 -163 -66 -37 -134 -42 -165 -10 l-21 20 22 38 c20 33
13 29 -58 -36 -85 -76 -102 -106 -81 -145 22 -42 83 -60 200 -60 99 0 110 2
171 32 71 35 95 63 141 163 35 76 69 114 147 159 138 82 149 115 95 298 -27
91 -44 114 -44 58z"/>
<path d="M2475 9367 c-60 -23 -106 -59 -133 -105 -24 -42 -27 -56 -27 -142 0
-77 5 -109 27 -168 38 -106 116 -240 224 -387 94 -127 204 -302 204 -324 0
-13 -69 13 -124 47 -21 13 -94 79 -162 147 -103 103 -138 131 -201 162 -139
69 -281 53 -325 -37 -32 -64 -24 -128 29 -227 25 -48 59 -112 75 -142 16 -31
28 -69 28 -91 0 -53 -49 -143 -126 -230 -87 -98 -118 -145 -138 -203 -41 -121
-1 -198 177 -340 110 -89 120 -143 61 -343 -31 -108 -38 -145 -38 -224 -1 -88
1 -100 32 -162 18 -37 53 -87 77 -112 48 -47 153 -106 190 -106 13 0 84 36
158 79 75 44 171 98 213 122 l77 42 -6 191 c-3 111 -14 248 -26 326 -26 168
-74 370 -92 381 -36 22 -371 79 -466 79 -65 0 -83 7 -83 32 0 20 4 20 91 14
109 -8 265 -30 367 -52 41 -9 76 -13 79 -10 7 6 -38 140 -95 286 -87 223 -219
461 -312 563 -53 58 -63 87 -31 87 31 0 124 -117 207 -260 231 -394 390 -952
410 -1440 4 -85 8 -157 10 -159 2 -2 61 30 131 71 70 41 190 110 265 152 75
43 141 83 147 89 13 16 47 294 62 502 16 230 7 608 -20 780 -44 291 -128 522
-264 725 -66 99 -214 245 -307 302 -134 83 -281 117 -365 85z m218 -174 c248
-287 450 -778 522 -1267 17 -116 39 -426 30 -434 -3 -3 -14 3 -25 13 -16 15
-20 31 -20 85 0 208 -58 547 -135 793 -99 313 -257 616 -409 784 -31 33 -56
68 -56 77 0 34 38 13 93 -51z"/>
</g>
</svg>
