<?xml version="1.0" encoding="utf-8"?>
<!-- Generator: Adobe Illustrator 27.5.0, SVG Export Plug-In . SVG Version: 6.00 Build 0)  -->
<svg version="1.1" xmlns="http://www.w3.org/2000/svg" xmlns:xlink="http://www.w3.org/1999/xlink" x="0px" y="0px"
	 viewBox="0 0 500 500" style="enable-background:new 0 0 500 500;" xml:space="preserve">
<g id="Background_Complete">
	<g>
		<rect y="382.398" style="fill:#EBEBEB;" width="500" height="0.25"/>
		<rect x="416.779" y="398.494" style="fill:#EBEBEB;" width="33.122" height="0.25"/>
		<rect x="322.527" y="401.208" style="fill:#EBEBEB;" width="8.693" height="0.25"/>
		<rect x="396.586" y="389.208" style="fill:#EBEBEB;" width="19.192" height="0.25"/>
		<rect x="52.459" y="390.888" style="fill:#EBEBEB;" width="43.193" height="0.25"/>
		<rect x="104.556" y="390.888" style="fill:#EBEBEB;" width="6.333" height="0.25"/>
		<rect x="131.471" y="395.111" style="fill:#EBEBEB;" width="93.676" height="0.25"/>
		<path style="fill:#EBEBEB;" d="M237.014,337.8H43.915c-3.147,0-5.708-2.561-5.708-5.708V60.66c0-3.147,2.561-5.708,5.708-5.708
			h193.099c3.146,0,5.707,2.561,5.707,5.708v271.432C242.721,335.239,240.16,337.8,237.014,337.8z M43.915,55.203
			c-3.01,0-5.458,2.448-5.458,5.458v271.432c0,3.01,2.448,5.458,5.458,5.458h193.099c3.009,0,5.457-2.448,5.457-5.458V60.66
			c0-3.009-2.448-5.458-5.457-5.458H43.915z"/>
		<path style="fill:#EBEBEB;" d="M453.31,337.8H260.212c-3.147,0-5.707-2.561-5.707-5.708V60.66c0-3.147,2.561-5.708,5.707-5.708
			H453.31c3.148,0,5.708,2.561,5.708,5.708v271.432C459.019,335.239,456.458,337.8,453.31,337.8z M260.212,55.203
			c-3.009,0-5.457,2.448-5.457,5.458v271.432c0,3.01,2.448,5.458,5.457,5.458H453.31c3.01,0,5.458-2.448,5.458-5.458V60.66
			c0-3.009-2.448-5.458-5.458-5.458H260.212z"/>
	</g>
	<g>
		<g>
			<g>
				<path style="fill:#F5F5F5;" d="M318.258,282.424L318.258,282.424h120.141l0,0c0,4.411-3.472,8.032-7.878,8.231
					c-12.911,0.582-32.773,2.625-39.072,9.769c-11.741,13.316-10.604,60.095,3.46,70.929c4.409,3.397,17.265,10.142,17.265,10.142
					h-67.691c0,0,12.012-6.881,16.186-10.142c13.984-10.923,14.391-57.674,2.595-70.929c-6.052-6.801-24.669-8.998-37.16-9.691
					C321.698,290.489,318.258,286.837,318.258,282.424z"/>
				<path style="fill:#E6E6E6;" d="M423.517,291.091c-12.203,0.979-26.828,3.39-32.068,9.333c-1.551,1.759-2.87,4.114-3.972,6.88
					h-20.178c-1.131-2.769-2.473-5.125-4.035-6.88c-5.26-5.91-20.006-8.342-31.977-9.333H423.517z"/>
			</g>
			<g>
				<polygon style="fill:#EBEBEB;" points="369.435,282.483 371.068,263.809 347.386,263.809 345.753,282.483 				"/>
				<polygon style="fill:#E0E0E0;" points="369.435,282.483 371.068,263.809 372.344,263.809 370.71,282.483 				"/>
				<polygon style="fill:#F0F0F0;" points="367.187,280.579 368.487,265.713 349.634,265.713 348.334,280.579 				"/>
				<polygon style="fill:#FAFAFA;" points="365.742,279.355 366.828,266.937 351.079,266.937 349.993,279.355 				"/>
			</g>
			<g>
				<g>
					<polygon style="fill:#E6E6E6;" points="377.116,282.424 400.906,282.424 398.267,252.255 374.477,252.255 					"/>
					<polygon style="fill:#E0E0E0;" points="377.116,282.424 375.981,282.424 373.341,252.255 374.477,252.255 					"/>
					<polygon style="fill:#F0F0F0;" points="379.273,279.349 398.212,279.349 396.11,255.331 377.172,255.331 					"/>
					<polygon style="fill:#FAFAFA;" points="380.659,277.371 396.48,277.371 394.724,257.308 378.904,257.308 					"/>
				</g>
				<path style="fill:#EBEBEB;" d="M388.65,266.335L388.65,266.335c-1.075,1.075-2.817,1.075-3.892,0l0,0
					c-1.075-1.075-1.075-2.817,0-3.892l0,0c1.075-1.075,2.817-1.075,3.892,0l0,0C389.724,263.517,389.725,265.26,388.65,266.335z"/>
				<path style="fill:#F0F0F0;" d="M387.485,269.706L387.485,269.706c0.787-0.787,2.063-0.787,2.85,0l0,0
					c1.269,1.27,0.37,3.44-1.425,3.44l0,0C387.115,273.146,386.216,270.975,387.485,269.706z"/>
			</g>
		</g>
		<g>
			<path style="fill:#F5F5F5;" d="M185.866,375.325h23.17l-12.181-99.206c-0.516-4.199-4.338-7.604-8.538-7.604h-7.963H87.216
				l14.821,106.81H185.866z"/>
			<path style="fill:#F0F0F0;" d="M112.379,375.325h-23.17l-12.181-99.206c-0.516-4.199,2.471-7.604,6.67-7.604h7.963
				c4.2,0,8.022,3.404,8.537,7.604L112.379,375.325z"/>
			<g>
				<path style="fill:#E6E6E6;" d="M120.916,375.207l-4.198-47.984c-0.188-2.143-1.843-3.866-3.977-4.138l-1.726-0.22
					c-2.863-0.365-5.084-2.676-5.336-5.551l-0.765-8.749c-0.314-3.586,2.512-6.67,6.112-6.67H72.302c-3.6,0-6.426,3.084-6.112,6.67
					l0.766,8.749c0.251,2.875,2.473,5.186,5.335,5.551l1.727,0.22c2.134,0.272,3.79,1.995,3.977,4.138l4.198,47.984
					c0.306,3.498,3.235,6.183,6.747,6.183h38.723C124.151,381.39,121.222,378.706,120.916,375.207z"/>
			</g>
			<path style="fill:#E6E6E6;" d="M227.479,315.211c0.659-7.535,6.969-13.317,14.533-13.317h-18.737H208.3
				c-7.564,0-13.874,5.782-14.533,13.317l-3.328,38.037h33.712L227.479,315.211z"/>
			<path style="fill:#F0F0F0;" d="M256.986,301.895h-14.975c-7.564,0-13.873,5.782-14.533,13.317l-3.328,38.037h-80.29
				l-3.328-38.037c-0.659-7.535-6.969-13.317-14.533-13.317h-14.975c-3.6,0-6.426,3.084-6.112,6.67l0.765,8.749
				c0.252,2.875,2.473,5.186,5.336,5.551l1.726,0.22c2.134,0.272,3.79,1.995,3.977,4.138l4.198,47.984
				c0.306,3.498,3.235,6.183,6.747,6.183h112.685c3.512,0,6.441-2.684,6.747-6.183l4.198-47.984
				c0.188-2.143,1.843-3.866,3.977-4.138l1.726-0.22c2.863-0.365,5.084-2.676,5.336-5.552l0.765-8.749
				C263.412,304.979,260.586,301.895,256.986,301.895z"/>
		</g>
		<g>
			<path style="fill:#E6E6E6;" d="M392.664,131.291c0,0,1.172-7.726-4.463-12.68c-5.635-4.954-5.14-7.901-3.53-8.285
				s3.096,4.57,5.573,5.932c0,0,0.078-7.059-2.438-9.66c-2.516-2.601-3.836-9.3-1.442-9.418c2.394-0.118,2.642,3.979,3.137,6.885
				c0.495,2.905,3.163,6.992,3.163,6.992s0.521-6.316,2.147-8.917c1.626-2.601-2.709-8.545-1.037-11.146
				c1.672-2.601,4.644,2.353,4.397,7.926c-0.248,5.573-3.963,11.518-3.096,17.339c0,0,1.639-4.087,3.111-4.459
				c1.472-0.372,2.958-3.075,3.949-4.076c0.991-1.001,2.229,2.466,0,5.686c-2.229,3.22-7.926,11.835-7.059,18.798L392.664,131.291z"
				/>
			<path style="fill:#E6E6E6;" d="M389.295,127.776l-1.845,11.58c-0.57,3.576,2.193,6.814,5.815,6.814h1.969
				c3.621,0,6.385-3.238,5.815-6.814l-1.845-11.58H389.295z"/>
			<rect x="286.767" y="141.897" style="fill:#E0E0E0;" width="130.438" height="6.702"/>
			<rect x="292.771" y="117.193" style="fill:#EBEBEB;" width="5.746" height="24.704"/>
			<rect x="320.557" y="117.193" style="fill:#EBEBEB;" width="5.747" height="24.704"/>
			
				<rect x="354.242" y="116.885" transform="matrix(0.9855 -0.1698 0.1698 0.9855 -16.7613 62.53)" style="fill:#EBEBEB;" width="5.747" height="24.704"/>
			<rect x="299.891" y="120.449" style="fill:#EBEBEB;" width="5.747" height="21.448"/>
			<rect x="313.1" y="120.449" style="fill:#EBEBEB;" width="5.747" height="21.448"/>
			<rect x="346.439" y="120.449" style="fill:#EBEBEB;" width="5.747" height="21.448"/>
			
				<rect x="330.5" y="120.081" transform="matrix(0.9762 -0.2169 0.2169 0.9762 -20.4349 75.4203)" style="fill:#EBEBEB;" width="5.747" height="21.448"/>
			<rect x="307.734" y="115.967" style="fill:#EBEBEB;" width="2.873" height="25.93"/>
			<rect x="341.914" y="115.967" style="fill:#EBEBEB;" width="2.873" height="25.93"/>
		</g>
		<g>
			
				<rect x="286.767" y="191.929" transform="matrix(-1 -1.224647e-16 1.224647e-16 -1 703.9725 390.5594)" style="fill:#E0E0E0;" width="130.438" height="6.702"/>
			
				<rect x="405.455" y="167.225" transform="matrix(-1 -1.224647e-16 1.224647e-16 -1 816.6568 359.1537)" style="fill:#EBEBEB;" width="5.747" height="24.704"/>
			
				<rect x="377.668" y="167.225" transform="matrix(-1 -1.224647e-16 1.224647e-16 -1 761.0835 359.1537)" style="fill:#EBEBEB;" width="5.747" height="24.704"/>
			
				<rect x="343.984" y="166.916" transform="matrix(-0.9855 -0.1698 0.1698 -0.9855 658.228 414.8432)" style="fill:#EBEBEB;" width="5.746" height="24.704"/>
			
				<rect x="398.335" y="170.48" transform="matrix(-1 -1.224647e-16 1.224647e-16 -1 802.4158 362.4092)" style="fill:#EBEBEB;" width="5.746" height="21.448"/>
			
				<rect x="385.126" y="170.48" transform="matrix(-1 -1.224647e-16 1.224647e-16 -1 775.9991 362.4092)" style="fill:#EBEBEB;" width="5.747" height="21.448"/>
			
				<rect x="351.787" y="170.48" transform="matrix(-1 -1.224647e-16 1.224647e-16 -1 709.3201 362.4092)" style="fill:#EBEBEB;" width="5.747" height="21.448"/>
			
				<rect x="367.726" y="170.112" transform="matrix(-0.9762 -0.2169 0.2169 -0.9762 693.1542 437.7491)" style="fill:#EBEBEB;" width="5.747" height="21.449"/>
			
				<rect x="393.366" y="165.998" transform="matrix(-1 -1.224647e-16 1.224647e-16 -1 789.6044 357.9272)" style="fill:#EBEBEB;" width="2.873" height="25.93"/>
			
				<rect x="359.185" y="165.998" transform="matrix(-1 -1.224647e-16 1.224647e-16 -1 721.2436 357.9272)" style="fill:#EBEBEB;" width="2.873" height="25.93"/>
			
				<rect x="299.283" y="172.376" transform="matrix(-1 -1.224647e-16 1.224647e-16 -1 626.5664 364.0835)" style="fill:#EBEBEB;" width="28" height="19.331"/>
		</g>
		<g>
			<path style="fill:#E0E0E0;" d="M232.275,108.41H72.955c-1.172,0-2.122-0.95-2.122-2.122v-2.268c0-1.172,0.95-2.122,2.122-2.122
				h159.32c1.172,0,2.122,0.95,2.122,2.122v2.268C234.397,107.46,233.447,108.41,232.275,108.41z"/>
			<rect x="80.549" y="107.078" style="fill:#E6E6E6;" width="144.132" height="127.896"/>
			<rect x="84.159" y="110.584" style="fill:#F0F0F0;" width="136.729" height="120.953"/>
			<polygon style="fill:#FFFFFF;" points="116.247,110.584 84.159,231.274 84.159,174.562 101.101,110.584 			"/>
			<polygon style="fill:#FFFFFF;" points="127.612,110.584 95.242,231.537 90.075,231.537 122.446,110.584 			"/>
			<polygon style="fill:#FFFFFF;" points="220.888,186.906 220.888,206.234 214.338,231.537 209.171,231.537 			"/>
			<rect x="129.544" y="108.41" style="fill:#E6E6E6;" width="2.304" height="125.828"/>
			<rect x="174.18" y="108.41" style="fill:#E6E6E6;" width="2.303" height="125.828"/>
			<g>
				<path style="fill:#E0E0E0;" d="M201.191,103.979c0,0,3.314,43.271,22.385,65.324c0,0-13.889,55.686-13.879,75.104l25.813-4.764
					l-9.304-70.017l4.45-65.647H201.191z"/>
				<path style="fill:#E0E0E0;" d="M104.039,103.979c0,0-3.314,43.271-22.385,65.324c0,0,13.889,55.686,13.879,75.104l-25.813-4.764
					l9.304-70.017l-4.45-65.647H104.039z"/>
			</g>
		</g>
	</g>
</g>
<g id="Background_Simple" style="display:none;">
	<g style="display:inline;">
		<path style="fill:#407BFF;" d="M97.999,101.625c27.919-59.449,127.059-51.062,165.317-9.255
			c38.258,41.806,50.696,68.599,85.208,52.983c34.512-15.616,78.518-11.44,81.042,38.164s-37.913,108.263-102.09,125.615
			c-64.177,17.352-64.161,78.759-149.1,66.368c-46.31-6.756-47.365-56.86-40.825-98.301
			C144.092,235.758,65.621,170.569,97.999,101.625z"/>
		<path style="opacity:0.9;fill:#FFFFFF;" d="M97.999,101.625c27.919-59.449,127.059-51.062,165.317-9.255
			c38.258,41.806,50.696,68.599,85.208,52.983c34.512-15.616,78.518-11.44,81.042,38.164s-37.913,108.263-102.09,125.615
			c-64.177,17.352-64.161,78.759-149.1,66.368c-46.31-6.756-47.365-56.86-40.825-98.301
			C144.092,235.758,65.621,170.569,97.999,101.625z"/>
	</g>
</g>
<g id="Shadow_1_">
	<ellipse id="_x3C_Path_x3E__359_" style="fill:#F5F5F5;" cx="250" cy="416.238" rx="193.889" ry="11.323"/>
</g>
<g id="Plant">
	<g>
		<g>
			<path style="fill:none;stroke:#407BFF;stroke-miterlimit:10;" d="M367.691,350.268c0,0,6.208-5.176,11.532,0
				c5.324,5.176,6.351,37.241,6.351,37.241"/>
			<path style="fill:none;stroke:#407BFF;stroke-miterlimit:10;" d="M386.013,393.701c0,0-3.66-37.631,10.119-53.445"/>
			<path style="fill:none;stroke:#407BFF;stroke-miterlimit:10;" d="M384.703,389.735c0,0,2.818-42.839-7.516-52.344"/>
			<path style="fill:none;stroke:#407BFF;stroke-miterlimit:10;" d="M386.013,389.735c0,0,0.241-28.308,7.92-32.709
				c7.679-4.401,11.594,9.952,11.594,9.952"/>
			<path style="fill:none;stroke:#407BFF;stroke-miterlimit:10;" d="M382.98,389.735c0,0,1.253-21.732-4.697-29.499
				c-5.95-7.767-12.213,3.327-12.213,3.327"/>
			<path style="fill:none;stroke:#407BFF;stroke-miterlimit:10;" d="M385.054,392.646c0,0-3.848-50.824,2.52-59.436"/>
		</g>
		<g>
			<path style="fill:#407BFF;" d="M400.509,361.151c0,0-3.829,1.412-2.691,4.744c1.138,3.333,13.247,8.818,13.247,8.818
				s5.071-4.648,0.414-12.207C406.822,354.946,400.613,358.766,400.509,361.151z"/>
			<path style="opacity:0.2;fill:#FFFFFF;enable-background:new    ;" d="M400.509,361.151c0,0-3.829,1.412-2.691,4.744
				c1.138,3.333,13.247,8.818,13.247,8.818s5.071-4.648,0.414-12.207C406.822,354.946,400.613,358.766,400.509,361.151z"/>
		</g>
		<g>
			<path style="fill:#407BFF;" d="M383.863,354.806c0,0,4.078-0.171,4.309,3.344c0.232,3.514-8.833,13.236-8.833,13.236
				s-6.469-2.339-5.08-11.108C375.649,351.509,382.85,352.645,383.863,354.806z"/>
			<path style="opacity:0.2;fill:#FFFFFF;enable-background:new    ;" d="M383.863,354.806c0,0,4.078-0.171,4.309,3.344
				c0.232,3.514-8.833,13.236-8.833,13.236s-6.469-2.339-5.08-11.108C375.649,351.509,382.85,352.645,383.863,354.806z"/>
		</g>
		<g>
			<path style="fill:#407BFF;" d="M380.411,337.985c0,0,2.719-0.292,2.5-1.948c-0.219-1.656-10.568-5.918-16.674,0.974
				c0,0,3.91,6.716,9.561,6.804C381.45,343.902,380.411,337.985,380.411,337.985z"/>
			<path style="opacity:0.2;fill:#FFFFFF;enable-background:new    ;" d="M380.411,337.985c0,0,2.719-0.292,2.5-1.948
				c-0.219-1.656-10.568-5.918-16.674,0.974c0,0,3.91,6.716,9.561,6.804C381.45,343.902,380.411,337.985,380.411,337.985z"/>
		</g>
		<g>
			<path style="fill:#407BFF;" d="M385.477,333.964c0,0-2.462,1.19-3.152-0.331c-0.69-1.521,5.839-10.612,14.666-7.992
				c0,0,0.234,7.767-4.516,10.831C387.725,339.535,385.477,333.964,385.477,333.964z"/>
			<path style="opacity:0.2;fill:#FFFFFF;enable-background:new    ;" d="M385.477,333.964c0,0-2.462,1.19-3.152-0.331
				c-0.69-1.521,5.839-10.612,14.666-7.992c0,0,0.234,7.767-4.516,10.831C387.725,339.535,385.477,333.964,385.477,333.964z"/>
		</g>
		<g>
			<path style="fill:#407BFF;" d="M372.606,359.811c0,0,1.876-1.515-0.148-2.254c-2.025-0.739-11.96-0.529-12.063,9.312
				c0,0,11.571,1.923,13.003-1.826C374.829,361.294,372.606,359.811,372.606,359.811z"/>
			<path style="opacity:0.2;fill:#FFFFFF;enable-background:new    ;" d="M372.606,359.811c0,0,1.876-1.515-0.148-2.254
				c-2.025-0.739-11.96-0.529-12.063,9.312c0,0,11.571,1.923,13.003-1.826C374.829,361.294,372.606,359.811,372.606,359.811z"/>
		</g>
		<g>
			<path style="fill:#407BFF;" d="M396.201,337.738c0,0-1.876-1.515,0.149-2.254c2.025-0.739,11.96-0.529,12.063,9.312
				c0,0-11.571,1.923-13.003-1.826C393.978,339.221,396.201,337.738,396.201,337.738z"/>
			<path style="opacity:0.2;fill:#FFFFFF;enable-background:new    ;" d="M396.201,337.738c0,0-1.876-1.515,0.149-2.254
				c2.025-0.739,11.96-0.529,12.063,9.312c0,0-11.571,1.923-13.003-1.826C393.978,339.221,396.201,337.738,396.201,337.738z"/>
		</g>
		<g>
			<path style="fill:#407BFF;" d="M390.084,345.666c0,0-0.165-1.841,1.322-1.12c1.487,0.722,6.666,6.309,1.297,11.612
				c0,0-7.227-5.352-5.924-8.14C388.081,345.231,390.084,345.666,390.084,345.666z"/>
			<path style="opacity:0.2;fill:#FFFFFF;enable-background:new    ;" d="M390.084,345.666c0,0-0.165-1.841,1.322-1.12
				c1.487,0.722,6.666,6.309,1.297,11.612c0,0-7.227-5.352-5.924-8.14C388.081,345.231,390.084,345.666,390.084,345.666z"/>
		</g>
		<g>
			<path style="fill:#407BFF;" d="M370.928,348.29c0,0,1.122-1.47-0.521-1.652c-1.643-0.182-9.004,1.783-7.29,9.131
				c0,0,8.968-0.674,9.352-3.727C372.854,348.99,370.928,348.29,370.928,348.29z"/>
			<path style="opacity:0.2;fill:#FFFFFF;enable-background:new    ;" d="M370.928,348.29c0,0,1.122-1.47-0.521-1.652
				c-1.643-0.182-9.004,1.783-7.29,9.131c0,0,8.968-0.674,9.352-3.727C372.854,348.99,370.928,348.29,370.928,348.29z"/>
		</g>
		<polygon style="fill:#263238;" points="401.225,417.016 370.455,417.016 367.136,383.327 404.545,383.327 		"/>
		<rect x="365.493" y="379.61" style="fill:#263238;" width="40.695" height="7.434"/>
		<rect x="365.493" y="379.61" style="opacity:0.2;fill:#FFFFFF;enable-background:new    ;" width="40.695" height="7.434"/>
	</g>
</g>
<g id="Device">
	<g>
		<g>
			<path style="fill:#407BFF;" d="M330.401,417.016h-92.828c-5.745,0-9.995-4.657-9.492-10.402l23.983-274.122
				c0.503-5.745,5.567-10.402,11.312-10.402h92.828c5.745,0,9.995,4.657,9.492,10.402l-23.983,274.122
				C341.211,412.358,336.146,417.016,330.401,417.016z"/>
			<path style="opacity:0.4;fill:#FFFFFF;enable-background:new    ;" d="M330.401,417.016h-92.828
				c-5.745,0-9.995-4.657-9.492-10.402l23.983-274.122c0.503-5.745,5.567-10.402,11.312-10.402h92.828
				c5.745,0,9.995,4.657,9.492,10.402l-23.983,274.122C341.211,412.358,336.146,417.016,330.401,417.016z"/>
			<path style="fill:#263238;" d="M320.401,417.016h-92.828c-5.745,0-9.995-4.657-9.492-10.402l23.983-274.122
				c0.503-5.745,5.567-10.402,11.312-10.402h92.828c5.745,0,9.995,4.657,9.492,10.402l-23.983,274.122
				C331.211,412.358,326.146,417.016,320.401,417.016z"/>
			<path style="fill:#407BFF;" d="M320.401,417.016h-92.828c-5.745,0-9.995-4.657-9.492-10.402l23.983-274.122
				c0.503-5.745,5.567-10.402,11.312-10.402h92.828c5.745,0,9.995,4.657,9.492,10.402l-23.983,274.122
				C331.211,412.358,326.146,417.016,320.401,417.016z"/>
			<path style="fill:#263238;" d="M351.907,131.969l-24.028,274.639c-0.198,2.259-1.609,4.014-3.175,4.014H224.088
				c-1.439,0-2.382-1.607-2.2-3.684l24.086-275.299c0.157-1.798,1.21-3.371,2.456-3.371h25.154c0.71,0,1.296,0.669,1.477,1.633
				l0.718,3.701c0.181,0.956,0.768,1.616,1.478,1.616h42.825c0.71,0,1.41-0.634,1.759-1.59l1.367-3.718
				c0.349-0.964,1.053-1.642,1.763-1.642h24.793C351.135,128.268,352.08,129.988,351.907,131.969z"/>
			<polygon style="fill:#407BFF;" points="350.73,145.426 330.112,381.083 224.15,381.083 244.767,145.426 			"/>
			<g>
				<g>
					<polygon style="opacity:0.6;fill:#FFFFFF;enable-background:new    ;" points="256.977,139.336 258.286,139.336 
						258.506,136.818 257.197,136.818 					"/>
					<polygon style="opacity:0.6;fill:#FFFFFF;enable-background:new    ;" points="254.844,139.336 256.153,139.336 
						256.447,135.978 255.138,135.978 					"/>
					<polygon style="opacity:0.6;fill:#FFFFFF;enable-background:new    ;" points="252.711,139.336 254.02,139.336 
						254.387,135.138 253.078,135.138 					"/>
					<polygon style="opacity:0.6;fill:#FFFFFF;enable-background:new    ;" points="250.578,139.336 251.887,139.336 
						252.328,134.298 251.019,134.298 					"/>
				</g>
				<g>
					<polygon style="opacity:0.6;fill:#FFFFFF;enable-background:new    ;" points="339.351,138.417 338.575,138.417 
						338.795,135.899 339.571,135.899 					"/>
					<polygon style="opacity:0.6;fill:#FFFFFF;enable-background:new    ;" points="339.803,139.336 345.984,139.336 
						346.366,134.98 340.185,134.98 					"/>
				</g>
			</g>
			<g>
				<path style="opacity:0.6;fill:#263238;enable-background:new    ;" d="M299.2,128.63c-0.101,1.159-0.835,2.099-1.638,2.099
					c-0.803,0-1.372-0.94-1.271-2.099c0.101-1.159,0.835-2.099,1.638-2.099C298.733,126.531,299.302,127.47,299.2,128.63z"/>
				<path style="opacity:0.6;fill:#263238;enable-background:new    ;" d="M302.144,128.63c-0.065,0.743-0.535,1.344-1.049,1.344
					c-0.515,0-0.879-0.602-0.814-1.344c0.065-0.743,0.535-1.345,1.049-1.345C301.845,127.285,302.209,127.887,302.144,128.63z"/>
			</g>
			<polygon style="opacity:0.7;fill:#FFFFFF;enable-background:new    ;" points="350.727,145.429 347.867,178.119 347.377,183.759 
				345.087,209.949 344.727,214.019 341.477,251.149 341.127,255.219 338.007,290.869 337.557,295.999 330.117,381.079 
				224.147,381.079 244.767,145.429 			"/>
		</g>
		<g>
			<g>
				<polygon style="fill:#407BFF;" points="249.601,203.545 246.795,208.702 252.407,212.272 				"/>
				<polygon style="fill:#407BFF;" points="257.803,306.712 261.416,302.682 256.592,297.279 				"/>
				<polygon style="fill:#407BFF;" points="299.363,155.14 299.091,148.645 293.197,151.149 				"/>
				<polygon style="fill:#407BFF;" points="239.451,304.217 236.645,309.374 242.257,312.944 				"/>
				<polygon style="fill:#407BFF;" points="242.873,282.107 240.746,287.71 236.389,284.011 239.887,277.988 				"/>
				<polygon style="fill:#407BFF;" points="286.49,361.594 290.979,361.991 290.418,369.131 285.087,367.147 				"/>
				<path style="fill:#407BFF;" d="M250,240.4l2.806,0.793c0,0-4.209,3.967-2.245,7.14c1.964,3.174-1.403,5.95-1.403,5.95
					l-2.525-2.38c0,0,2.245-2.38,1.122-5.554C246.633,243.176,250,240.4,250,240.4z"/>
				<path style="fill:#407BFF;" d="M288.314,217.837l2.806,0.793c0,0-4.209,3.967-2.245,7.14c1.964,3.174-1.403,5.95-1.403,5.95
					l-2.525-2.38c0,0,2.245-2.38,1.122-5.553C284.947,220.614,288.314,217.837,288.314,217.837z"/>
				<polygon style="fill:#407BFF;" points="250.277,180.218 247.7,185.609 253.456,188.686 				"/>
				<polygon style="fill:#407BFF;" points="300.691,182.963 298.114,188.354 303.871,191.431 				"/>
				<polygon style="fill:#407BFF;" points="276.399,174.402 277.965,168.284 271.851,167.292 				"/>
				<polygon style="fill:#407BFF;" points="275.238,198.755 276.061,192.503 281.006,194.157 278.967,201.398 				"/>
				<polygon style="fill:#407BFF;" points="334.035,189.744 334.858,183.492 339.803,185.145 337.764,192.386 				"/>
				<polygon style="fill:#407BFF;" points="329.93,226.583 330.753,220.332 335.698,221.986 333.659,229.226 				"/>
				<path style="fill:#407BFF;" d="M315.974,218.842l-2.844,0.449c0,0,3.158-5.586,0.605-7.767c-2.553-2.18,0.059-6.272,0.059-6.272
					l2.917,1.184c0,0-1.628,3.231,0.124,5.773C318.586,214.751,315.974,218.842,315.974,218.842z"/>
				<polygon style="fill:#407BFF;" points="292.387,292.965 289.582,298.122 295.193,301.692 				"/>
				<polygon style="fill:#407BFF;" points="274.875,312.944 272.069,318.101 277.681,321.672 				"/>
				<polygon style="fill:#407BFF;" points="306.65,268.448 311.139,268.844 310.578,275.985 305.247,274.001 				"/>
				<polygon style="fill:#407BFF;" points="323.425,328.685 327.914,329.082 327.353,336.222 322.022,334.239 				"/>
				<path style="fill:#407BFF;" d="M301.273,335.093l2.806,0.793c0,0-4.209,3.967-2.245,7.14c1.964,3.173-1.403,5.95-1.403,5.95
					l-2.525-2.38c0,0,2.245-2.38,1.122-5.554C297.906,337.869,301.273,335.093,301.273,335.093z"/>
				<path style="fill:#407BFF;" d="M326.048,306.415l-1.763,0.584c0,0,0.754-5.285-1.441-7.115c-2.194-1.83-1.446-5.719-1.446-5.719
					l2.198,0.899c0,0-0.305,3.045,1.448,5.254C326.797,302.527,326.048,306.415,326.048,306.415z"/>
				<path style="fill:#407BFF;" d="M327.275,164.143l-1.763,0.584c0,0,0.754-5.285-1.441-7.115c-2.195-1.83-1.446-5.719-1.446-5.719
					l2.198,0.899c0,0-0.305,3.045,1.448,5.254C328.024,160.254,327.275,164.143,327.275,164.143z"/>
				<path style="fill:#407BFF;" d="M257.64,364.79l-2.652,1.519c0,0,1.972-6.585-0.903-7.709c-2.875-1.124-1.143-6.061-1.143-6.061
					l3.035,0.025c0,0-0.949,3.733,1.223,5.511S257.64,364.79,257.64,364.79z"/>
				<path style="fill:#407BFF;" d="M256.492,155.14c0,1.643-0.942,2.975-2.105,2.975c-1.162,0-2.104-1.332-2.104-2.975
					s0.942-2.975,2.104-2.975C255.549,152.165,256.492,153.497,256.492,155.14z"/>
				<path style="fill:#407BFF;" d="M279.786,269.552c0,1.643-0.942,2.975-2.104,2.975c-1.162,0-2.104-1.332-2.104-2.975
					c0-1.643,0.942-2.975,2.104-2.975C278.844,266.577,279.786,267.909,279.786,269.552z"/>
				<ellipse style="fill:#407BFF;" cx="334.918" cy="258.062" rx="2.105" ry="2.975"/>
				<path style="fill:#407BFF;" d="M345.189,157.314c0,1.643-0.942,2.975-2.104,2.975c-1.162,0-2.105-1.332-2.105-2.975
					s0.942-2.975,2.105-2.975C344.247,154.339,345.189,155.671,345.189,157.314z"/>
				<polygon style="fill:#407BFF;" points="234.546,342.363 236.778,336.673 230.852,334.324 				"/>
				<polygon style="fill:#407BFF;" points="318.47,370.101 317.291,376.39 323.443,376.617 				"/>
				<path style="fill:#407BFF;" d="M232.086,374.765c-0.102-1.637,0.753-3.081,1.911-3.226c1.158-0.145,2.179,1.065,2.282,2.702
					c0.102,1.637-0.753,3.081-1.911,3.225C233.21,377.612,232.188,376.402,232.086,374.765z"/>
				<g style="opacity:0.5;enable-background:new    ;">
					<polygon style="fill:#FFFFFF;" points="249.601,203.545 246.795,208.702 252.407,212.272 					"/>
					<polygon style="fill:#FFFFFF;" points="257.803,306.712 261.416,302.682 256.592,297.279 					"/>
					<polygon style="fill:#FFFFFF;" points="299.363,155.14 299.091,148.645 293.197,151.149 					"/>
					<polygon style="fill:#FFFFFF;" points="239.451,304.217 236.645,309.374 242.257,312.944 					"/>
					<polygon style="fill:#FFFFFF;" points="242.873,282.107 240.746,287.71 236.389,284.011 239.887,277.988 					"/>
					<polygon style="fill:#FFFFFF;" points="286.49,361.594 290.979,361.991 290.418,369.131 285.087,367.147 					"/>
					<path style="fill:#FFFFFF;" d="M250,240.4l2.806,0.793c0,0-4.209,3.967-2.245,7.14c1.964,3.174-1.403,5.95-1.403,5.95
						l-2.525-2.38c0,0,2.245-2.38,1.122-5.554C246.633,243.176,250,240.4,250,240.4z"/>
					<path style="fill:#FFFFFF;" d="M288.314,217.837l2.806,0.793c0,0-4.209,3.967-2.245,7.14c1.964,3.174-1.403,5.95-1.403,5.95
						l-2.525-2.38c0,0,2.245-2.38,1.122-5.553C284.947,220.614,288.314,217.837,288.314,217.837z"/>
					<polygon style="fill:#FFFFFF;" points="250.277,180.218 247.7,185.609 253.456,188.686 					"/>
					<polygon style="fill:#FFFFFF;" points="300.691,182.963 298.114,188.354 303.871,191.431 					"/>
					<polygon style="fill:#FFFFFF;" points="276.399,174.402 277.965,168.284 271.851,167.292 					"/>
					<polygon style="fill:#FFFFFF;" points="275.238,198.755 276.061,192.503 281.006,194.157 278.967,201.398 					"/>
					<polygon style="fill:#FFFFFF;" points="334.035,189.744 334.858,183.492 339.803,185.145 337.764,192.386 					"/>
					<polygon style="fill:#FFFFFF;" points="329.93,226.583 330.753,220.332 335.698,221.986 333.659,229.226 					"/>
					<path style="fill:#FFFFFF;" d="M315.974,218.842l-2.844,0.449c0,0,3.158-5.586,0.605-7.767
						c-2.553-2.18,0.059-6.272,0.059-6.272l2.917,1.184c0,0-1.628,3.231,0.124,5.773
						C318.586,214.751,315.974,218.842,315.974,218.842z"/>
					<polygon style="fill:#FFFFFF;" points="292.387,292.965 289.582,298.122 295.193,301.692 					"/>
					<polygon style="fill:#FFFFFF;" points="274.875,312.944 272.069,318.101 277.681,321.672 					"/>
					<polygon style="fill:#FFFFFF;" points="306.65,268.448 311.139,268.844 310.578,275.985 305.247,274.001 					"/>
					<polygon style="fill:#FFFFFF;" points="323.425,328.685 327.914,329.082 327.353,336.222 322.022,334.239 					"/>
					<path style="fill:#FFFFFF;" d="M301.273,335.093l2.806,0.793c0,0-4.209,3.967-2.245,7.14c1.964,3.173-1.403,5.95-1.403,5.95
						l-2.525-2.38c0,0,2.245-2.38,1.122-5.554C297.906,337.869,301.273,335.093,301.273,335.093z"/>
					<path style="fill:#FFFFFF;" d="M326.048,306.415l-1.763,0.584c0,0,0.754-5.285-1.441-7.115
						c-2.194-1.83-1.446-5.719-1.446-5.719l2.198,0.899c0,0-0.305,3.045,1.448,5.254
						C326.797,302.527,326.048,306.415,326.048,306.415z"/>
					<path style="fill:#FFFFFF;" d="M327.275,164.143l-1.763,0.584c0,0,0.754-5.285-1.441-7.115
						c-2.195-1.83-1.446-5.719-1.446-5.719l2.198,0.899c0,0-0.305,3.045,1.448,5.254
						C328.024,160.254,327.275,164.143,327.275,164.143z"/>
					<path style="fill:#FFFFFF;" d="M257.64,364.79l-2.652,1.519c0,0,1.972-6.585-0.903-7.709c-2.875-1.124-1.143-6.061-1.143-6.061
						l3.035,0.025c0,0-0.949,3.733,1.223,5.511S257.64,364.79,257.64,364.79z"/>
					<path style="fill:#FFFFFF;" d="M256.492,155.14c0,1.643-0.942,2.975-2.105,2.975c-1.162,0-2.104-1.332-2.104-2.975
						s0.942-2.975,2.104-2.975C255.549,152.165,256.492,153.497,256.492,155.14z"/>
					<path style="fill:#FFFFFF;" d="M279.786,269.552c0,1.643-0.942,2.975-2.104,2.975c-1.162,0-2.104-1.332-2.104-2.975
						c0-1.643,0.942-2.975,2.104-2.975C278.844,266.577,279.786,267.909,279.786,269.552z"/>
					<ellipse style="fill:#FFFFFF;" cx="334.918" cy="258.062" rx="2.105" ry="2.975"/>
					<path style="fill:#FFFFFF;" d="M345.189,157.314c0,1.643-0.942,2.975-2.104,2.975c-1.162,0-2.105-1.332-2.105-2.975
						s0.942-2.975,2.105-2.975C344.247,154.339,345.189,155.671,345.189,157.314z"/>
					<polygon style="fill:#FFFFFF;" points="234.546,342.363 236.778,336.673 230.852,334.324 					"/>
					<polygon style="fill:#FFFFFF;" points="318.47,370.101 317.291,376.39 323.443,376.617 					"/>
					<path style="fill:#FFFFFF;" d="M232.086,374.765c-0.102-1.637,0.753-3.081,1.911-3.226c1.158-0.145,2.179,1.065,2.282,2.702
						c0.102,1.637-0.753,3.081-1.911,3.225C233.21,377.612,232.188,376.402,232.086,374.765z"/>
				</g>
			</g>
			<g>
				<g>
					<path style="fill:#407BFF;" d="M299.569,341.803h-41.042c-6.015,0-10.456-4.763-9.919-10.638v0
						c0.537-5.875,5.848-10.638,11.863-10.638h41.042c6.015,0,10.456,4.763,9.919,10.638v0
						C310.896,337.04,305.584,341.803,299.569,341.803z"/>
				</g>
				<g>
					<path style="fill:#407BFF;" d="M255.596,176.279c0.165-1.808,1.472-3.127,3.072-3.127c0.811,0,1.488,0.323,1.911,0.952
						l-0.538,0.55c-0.36-0.498-0.835-0.725-1.414-0.725c-1.186,0-2.156,0.995-2.28,2.35c-0.124,1.354,0.664,2.349,1.851,2.349
						c0.578,0,1.096-0.236,1.547-0.734l0.438,0.55c-0.538,0.629-1.274,0.961-2.093,0.961
						C256.497,179.406,255.431,178.087,255.596,176.279z"/>
					<path style="fill:#407BFF;" d="M260.916,176.279c0.164-1.79,1.472-3.127,3.087-3.127c1.599,0,2.665,1.327,2.501,3.127
						c-0.164,1.799-1.473,3.127-3.072,3.127C261.817,179.406,260.752,178.07,260.916,176.279z M265.753,176.279
						c0.124-1.354-0.656-2.35-1.82-2.35c-1.18,0-2.142,0.995-2.265,2.35c-0.124,1.354,0.656,2.349,1.836,2.349
						C264.667,178.629,265.629,177.633,265.753,176.279z"/>
					<path style="fill:#407BFF;" d="M272.457,173.222l-0.559,6.114h-0.616l-2.738-4.559l-0.417,4.559h-0.751l0.559-6.114h0.616
						l2.738,4.559l0.417-4.559H272.457z"/>
					<path style="fill:#407BFF;" d="M277.404,176.244h0.721l-0.218,2.385c-0.573,0.515-1.325,0.778-2.061,0.778
						c-1.615,0-2.681-1.319-2.516-3.127c0.165-1.808,1.472-3.127,3.102-3.127c0.834,0,1.51,0.323,1.934,0.943l-0.515,0.541
						c-0.391-0.489-0.867-0.707-1.46-0.707c-1.217,0-2.186,0.987-2.31,2.35c-0.123,1.345,0.664,2.349,1.873,2.349
						c0.443,0,0.867-0.113,1.267-0.393L277.404,176.244z"/>
					<path style="fill:#407BFF;" d="M282.795,179.336l-0.962-1.878c-0.106,0.009-0.219,0.017-0.332,0.017h-1.299l-0.17,1.861h-0.751
						l0.559-6.114h2.05c1.367,0,2.12,0.804,1.998,2.131c-0.086,0.943-0.569,1.625-1.333,1.931l1.059,2.052H282.795z
						 M283.136,175.353c0.08-0.873-0.378-1.371-1.339-1.371h-1.277l-0.252,2.752h1.277
						C282.507,176.733,283.056,176.227,283.136,175.353z"/>
					<path style="fill:#407BFF;" d="M288.232,177.807h-2.794l-0.718,1.529h-0.773l2.939-6.114h0.744l1.829,6.114h-0.789
						L288.232,177.807z M288.033,177.109l-0.86-2.996l-1.408,2.996H288.033z"/>
					<path style="fill:#407BFF;" d="M291.514,173.982h-1.803l0.069-0.76h4.349l-0.069,0.76h-1.803l-0.489,5.354h-0.743
						L291.514,173.982z"/>
					<path style="fill:#407BFF;" d="M294.49,176.699l0.318-3.477h0.751l-0.314,3.441c-0.124,1.354,0.353,1.965,1.3,1.965
						c0.946,0,1.543-0.611,1.667-1.965l0.315-3.441h0.728l-0.318,3.477c-0.162,1.773-1.081,2.708-2.471,2.708
						C295.084,179.406,294.328,178.471,294.49,176.699z"/>
					<path style="fill:#407BFF;" d="M300.797,173.222h0.751l-0.489,5.354h2.846l-0.07,0.76h-3.597L300.797,173.222z"/>
					<path style="fill:#407BFF;" d="M308.213,177.807h-2.794l-0.718,1.529h-0.774l2.94-6.114h0.744l1.829,6.114h-0.789
						L308.213,177.807z M308.014,177.109l-0.86-2.996l-1.408,2.996H308.014z"/>
					<path style="fill:#407BFF;" d="M311.495,173.982h-1.803l0.069-0.76h4.349l-0.069,0.76h-1.803l-0.489,5.354h-0.744
						L311.495,173.982z"/>
					<path style="fill:#407BFF;" d="M314.931,173.222h0.751l-0.559,6.114h-0.751L314.931,173.222z"/>
					<path style="fill:#407BFF;" d="M316.553,176.279c0.164-1.79,1.472-3.127,3.087-3.127c1.599,0,2.665,1.327,2.5,3.127
						c-0.164,1.799-1.472,3.127-3.072,3.127C317.454,179.406,316.389,178.07,316.553,176.279z M321.39,176.279
						c0.124-1.354-0.656-2.35-1.82-2.35c-1.179,0-2.142,0.995-2.265,2.35c-0.124,1.354,0.657,2.349,1.836,2.349
						C320.304,178.629,321.266,177.633,321.39,176.279z"/>
					<path style="fill:#407BFF;" d="M328.094,173.222l-0.559,6.114h-0.616l-2.738-4.559l-0.417,4.559h-0.751l0.559-6.114h0.616
						l2.738,4.559l0.417-4.559H328.094z"/>
					<path style="fill:#407BFF;" d="M328.699,178.637l0.34-0.681c0.353,0.41,0.994,0.707,1.671,0.707
						c0.909,0,1.337-0.411,1.385-0.943c0.137-1.493-3.134-0.55-2.927-2.821c0.086-0.943,0.79-1.747,2.172-1.747
						c0.616,0,1.237,0.192,1.64,0.541l-0.312,0.699c-0.427-0.341-0.931-0.498-1.397-0.498c-0.894,0-1.317,0.437-1.365,0.97
						c-0.136,1.493,3.133,0.559,2.928,2.803c-0.085,0.935-0.805,1.739-2.194,1.739C329.838,179.406,329.078,179.091,328.699,178.637
						z"/>
				</g>
				<g>
					<path style="fill:#FFFFFF;" d="M262.25,331.34h1.232l-0.251,2.75c-0.693,0.561-1.603,0.862-2.435,0.862
						c-1.832,0-3.047-1.462-2.861-3.506c0.187-2.043,1.669-3.505,3.526-3.505c1.024,0,1.836,0.406,2.333,1.172l-0.951,0.93
						c-0.377-0.523-0.846-0.765-1.437-0.765c-1.133,0-1.987,0.881-2.105,2.169c-0.116,1.269,0.576,2.169,1.692,2.169
						c0.366,0,0.715-0.077,1.076-0.291L262.25,331.34z"/>
					<path style="fill:#FFFFFF;" d="M265.028,328.057h1.349l-0.62,6.779h-1.349L265.028,328.057z"/>
					<path style="fill:#FFFFFF;" d="M268.992,329.316l-0.164,1.791h2.698l-0.115,1.26h-2.698l-0.226,2.469h-1.349l0.619-6.779h4.405
						l-0.115,1.259H268.992z"/>
					<path style="fill:#FFFFFF;" d="M274.208,329.335h-1.865l0.117-1.278h5.08l-0.117,1.278h-1.865l-0.503,5.501h-1.349
						L274.208,329.335z"/>
					<path style="fill:#FFFFFF;" d="M279.601,334.167l0.566-1.181c0.453,0.416,1.16,0.707,1.859,0.707
						c0.799,0,1.152-0.31,1.191-0.727c0.116-1.268-3.353-0.397-3.123-2.915c0.105-1.152,0.992-2.111,2.649-2.111
						c0.733,0,1.464,0.203,1.969,0.6l-0.525,1.192c-0.509-0.358-1.05-0.533-1.567-0.533c-0.799,0-1.139,0.348-1.178,0.775
						c-0.114,1.249,3.354,0.387,3.126,2.876c-0.104,1.132-1,2.101-2.665,2.101C280.978,334.952,280.074,334.632,279.601,334.167z"/>
					<path style="fill:#FFFFFF;" d="M289.936,333.577l-0.115,1.259h-4.513l0.619-6.779h4.405l-0.115,1.259h-3.064l-0.134,1.472
						h2.706l-0.111,1.22h-2.706l-0.143,1.569H289.936z"/>
					<path style="fill:#FFFFFF;" d="M296.858,328.057l-0.62,6.779h-1.108l-2.53-4.116l-0.376,4.116h-1.332l0.62-6.779h1.116
						l2.522,4.116l0.376-4.116H296.858z"/>
					<path style="fill:#FFFFFF;" d="M299.328,329.335h-1.865l0.117-1.278h5.079l-0.117,1.278h-1.865l-0.503,5.501h-1.349
						L299.328,329.335z"/>
				</g>
			</g>
			<g>
				
					<ellipse transform="matrix(0.1985 -0.9801 0.9801 0.1985 -15.5649 482.8568)" style="fill:#407BFF;" cx="287.44" cy="250.945" rx="46.533" ry="35.05"/>
				
					<ellipse transform="matrix(0.1985 -0.9801 0.9801 0.1985 -15.5649 482.8568)" style="opacity:0.3;fill:#FFFFFF;enable-background:new    ;" cx="287.44" cy="250.945" rx="46.533" ry="35.05"/>
				<g>
					<path style="fill:#E4897B;" d="M232.875,254.047l11.745-8.239l7.821,4.354l22.434-4.198l-0.994,8.655l-21.662,0.891
						c0,0-10.229,6.216-12.213,6.533C238.022,262.361,232.875,254.047,232.875,254.047z"/>
					<path style="fill:#407BFF;" d="M322.787,250.717c-0.051,0.587-0.111,1.174-0.172,1.751l-56.7,4.332l-0.405,0.03l0.01-1.862
						l0.041-7.267l0.02-3.148l1.194-0.243l54.869-11.265C322.889,238.5,323.324,244.462,322.787,250.717z"/>
					<path style="opacity:0.2;enable-background:new    ;" d="M322.787,250.717c-0.051,0.587-0.111,1.174-0.172,1.751l-56.7,4.332
						l-0.405,0.03l0.01-1.862l0.041-7.267l0.02-3.148l1.194-0.243l54.869-11.265C322.889,238.5,323.324,244.462,322.787,250.717z"/>
					<polygon style="fill:#407BFF;" points="262.962,244.219 266.83,243.495 265.756,259.151 261.445,258.6 					"/>
					<polygon style="opacity:0.5;fill:#FFFFFF;enable-background:new    ;" points="262.962,244.219 266.83,243.495 
						265.756,259.151 261.445,258.6 					"/>
				</g>
				<g>
					<g>
						<polygon style="fill:#263238;" points="205.385,229.143 205.544,229.124 205.529,229.097 205.552,229.095 205.545,229.05 
													"/>
						<polygon style="fill:#263238;" points="266.586,216.382 266.019,216.457 225.07,219.344 205.868,228.74 205.529,228.764 
							211.81,266.341 250.75,263.596 271.973,253.302 						"/>
					</g>
					<g>
						<polygon style="opacity:0.2;fill:#FFFFFF;" points="210.482,231.401 212.172,232.756 214.246,232.132 213.48,234.158 
							214.714,235.938 212.55,235.835 211.239,237.559 210.668,235.469 208.623,234.755 210.434,233.566 						"/>
						<polygon style="opacity:0.2;fill:#FFFFFF;" points="232.875,232.951 232.882,235.117 234.67,236.339 232.612,237.015 
							232.002,239.093 230.723,237.344 228.558,237.406 229.826,235.65 229.098,233.61 231.16,234.273 						"/>
						<polygon style="opacity:0.2;fill:#FFFFFF;" points="233.789,256.283 233.795,258.449 235.583,259.671 233.526,260.347 
							232.916,262.425 231.637,260.677 229.472,260.739 230.74,258.983 230.012,256.943 232.074,257.606 						"/>
						<polygon style="opacity:0.2;fill:#FFFFFF;" points="223.921,251.129 223.927,253.295 225.715,254.518 223.657,255.193 
							223.047,257.272 221.769,255.523 219.604,255.585 220.871,253.829 220.143,251.789 222.205,252.452 						"/>
						<polygon style="opacity:0.2;fill:#FFFFFF;" points="234.633,249.654 234.637,250.923 235.684,251.638 234.479,252.034 
							234.121,253.251 233.373,252.227 232.105,252.264 232.847,251.235 232.421,250.04 233.628,250.429 						"/>
						<polygon style="opacity:0.2;fill:#FFFFFF;" points="217.06,259.667 217.064,260.935 218.111,261.651 216.906,262.047 
							216.548,263.264 215.8,262.24 214.532,262.276 215.274,261.248 214.848,260.053 216.055,260.441 						"/>
						<polygon style="opacity:0.2;fill:#FFFFFF;" points="214.733,247.401 214.737,248.67 215.784,249.385 214.579,249.781 
							214.221,250.998 213.473,249.974 212.205,250.011 212.947,248.982 212.521,247.787 213.728,248.176 						"/>
						<polygon style="opacity:0.2;fill:#FFFFFF;" points="240.37,227.315 240.374,228.584 241.421,229.299 240.215,229.695 
							239.858,230.912 239.109,229.889 237.841,229.925 238.584,228.896 238.157,227.702 239.365,228.09 						"/>
						<polygon style="opacity:0.2;fill:#FFFFFF;" points="218.095,237.532 219.541,240.006 222.398,240.218 220.492,242.357 
							221.174,245.14 218.55,243.988 216.114,245.497 216.398,242.646 214.211,240.795 217.011,240.184 						"/>
						<polygon style="opacity:0.2;fill:#FFFFFF;" points="237.137,241.428 239.808,242.464 242.176,240.85 242.017,243.711 
							244.283,245.464 241.513,246.197 240.546,248.894 238.993,246.485 236.129,246.399 237.94,244.178 						"/>
						<polygon style="opacity:0.2;fill:#FFFFFF;" points="243.334,253.301 244.78,255.775 247.638,255.986 245.732,258.126 
							246.413,260.909 243.79,259.757 241.353,261.265 241.638,258.414 239.451,256.563 242.25,255.953 						"/>
					</g>
					<g>
						<polygon style="opacity:0.2;fill:#FFFFFF;" points="248.625,227.407 249.616,228.606 250.618,227.789 250.416,229.887 
							251.214,231.553 250.098,231.651 249.588,233.498 249.101,231.461 247.988,230.936 248.803,229.578 						"/>
						<polygon style="opacity:0.2;fill:#FFFFFF;" points="260.224,226.874 260.43,229.041 261.459,230.098 260.47,230.965 
							260.352,233.102 259.535,231.471 258.433,231.735 258.917,229.86 258.354,227.886 259.47,228.358 						"/>
						<polygon style="opacity:0.2;fill:#FFFFFF;" points="262.876,250.136 263.082,252.303 264.111,253.36 263.122,254.227 
							263.004,256.363 262.186,254.733 261.085,254.997 261.569,253.121 261.005,251.148 262.122,251.62 						"/>
						<polygon style="opacity:0.2;fill:#FFFFFF;" points="257.346,245.898 257.552,248.064 258.581,249.121 257.591,249.989 
							257.474,252.125 256.656,250.494 255.555,250.758 256.039,248.883 255.475,246.909 256.592,247.381 						"/>
						<polygon style="opacity:0.2;fill:#FFFFFF;" points="262.687,243.425 262.808,244.694 263.41,245.313 262.831,245.821 
							262.762,247.072 262.283,246.117 261.638,246.271 261.922,245.173 261.591,244.017 262.246,244.293 						"/>
						<polygon style="opacity:0.2;fill:#FFFFFF;" points="254.636,255.078 254.757,256.347 255.359,256.966 254.78,257.474 
							254.711,258.725 254.232,257.77 253.587,257.925 253.87,256.826 253.54,255.671 254.195,255.947 						"/>
						<polygon style="opacity:0.2;fill:#FFFFFF;" points="252.297,243.021 252.418,244.29 253.021,244.91 252.441,245.418 
							252.372,246.669 251.893,245.714 251.248,245.868 251.532,244.77 251.202,243.614 251.856,243.89 						"/>
						<polygon style="opacity:0.2;fill:#FFFFFF;" points="263.53,220.538 263.65,221.807 264.253,222.426 263.674,222.934 
							263.605,224.186 263.126,223.231 262.481,223.385 262.764,222.287 262.434,221.131 263.088,221.407 						"/>
						<polygon style="opacity:0.2;fill:#FFFFFF;" points="253.093,232.834 254.064,235.175 255.545,235.121 254.771,237.439 
							255.38,240.16 253.93,239.252 252.825,240.988 252.704,238.108 251.412,236.46 252.787,235.589 						"/>
						<polygon style="opacity:0.2;fill:#FFFFFF;" points="263.197,234.961 264.661,235.749 265.721,233.913 265.907,236.791 
							267.231,238.335 265.882,239.325 265.64,242.114 264.621,239.849 263.147,240.029 263.866,237.638 						"/>
						<polygon style="opacity:0.2;fill:#FFFFFF;" points="267.479,246.264 268.45,248.605 269.932,248.551 269.157,250.869 
							269.766,253.59 268.316,252.682 267.211,254.418 267.09,251.539 265.798,249.89 267.173,249.019 						"/>
					</g>
					<polygon style="opacity:0.2;enable-background:new    ;" points="244.454,226.132 266.598,216.548 271.994,253.602 
						250.781,264.031 					"/>
					<polygon style="opacity:0.2;fill:#FFFFFF;" points="205.37,228.922 225.07,219.344 266.297,216.438 244.436,225.884 					"/>
					<g>
						<polygon style="fill:#407BFF;" points="264.668,257.298 259.357,219.12 219.161,221.954 215.504,224.196 252.292,222.61 
							259.612,259.561 						"/>
						<polygon style="fill:#407BFF;" points="245.077,217.934 226.774,227.085 231.696,264.939 225.876,265.349 219.203,227.736 
							239.742,218.31 						"/>
						<polygon style="opacity:0.2;enable-background:new    ;" points="259.38,219.451 252.298,222.692 259.621,259.685 
							264.68,257.463 						"/>
						<polygon style="opacity:0.1;enable-background:new    ;" points="219.215,227.901 226.78,227.167 231.696,264.939 
							225.876,265.349 						"/>
					</g>
					<g>
						<path style="fill:#407BFF;" d="M233.244,221.757c0,0-11.512-7.475-16.096-5.08c-3.632,1.897-2.74,6.74,6.831,7.315
							c-3.535,0.572-7.714,1.432-10.16,2.571l7.214,0.345c0,0,6.76-2.427,12.922-3.382c0,0,0.383,1.104,0.173,2.459l4.862-0.769
							c0,0-1.542-1.275-2.786-2.205c5.568-0.952,17.458-3.6,18.29-8.966C255.584,207.021,238.605,212.849,233.244,221.757z
							 M217.247,218.071c1.024-1.9,15.355,4.34,15.355,4.34C226.178,223.775,216.223,219.971,217.247,218.071z M234.508,221.972
							c0,0,14.058-11.654,17.801-9.541C256.053,214.543,239.012,222.081,234.508,221.972z"/>
						<path style="opacity:0.1;" d="M233.244,221.757c0,0-11.512-7.475-16.096-5.08c-3.632,1.897-2.74,6.74,6.831,7.315
							c-3.535,0.572-7.714,1.432-10.16,2.571l7.214,0.345c0,0,6.76-2.427,12.922-3.382c0,0,0.383,1.104,0.173,2.459l4.862-0.769
							c0,0-1.542-1.275-2.786-2.205c5.568-0.952,17.458-3.6,18.29-8.966C255.584,207.021,238.605,212.849,233.244,221.757z
							 M217.247,218.071c1.024-1.9,15.355,4.34,15.355,4.34C226.178,223.775,216.223,219.971,217.247,218.071z M234.508,221.972
							c0,0,14.058-11.654,17.801-9.541C256.053,214.543,239.012,222.081,234.508,221.972z"/>
					</g>
				</g>
				<g>
					<path style="fill:#E4897B;" d="M256.227,254.237l13.06-5.938l6.887,5.718h22.823l-2.569,8.325l-21.456-3.109
						c0,0-11.198,4.228-13.207,4.176C259.757,263.356,256.227,254.237,256.227,254.237z"/>
					<path style="fill:#407BFF;" d="M322.727,251.334c-0.03,0.385-0.071,0.759-0.111,1.134c-0.678,5.962-2.186,11.64-4.362,16.832
						l-30.314-5.273l-0.334-0.061l0.547-2.824l1.376-7.125l0.405-2.105l1.144-0.02L322.727,251.334z"/>
					<polygon style="fill:#407BFF;" points="287.608,250.111 291.543,250.111 287.608,265.301 283.472,263.967 					"/>
					<polygon style="opacity:0.7;fill:#FFFFFF;enable-background:new    ;" points="287.608,250.111 291.543,250.111 
						287.608,265.301 283.472,263.967 					"/>
				</g>
			</g>
		</g>
	</g>
</g>
<g id="Speech_Bubble">
	<g>
		<path style="fill:#407BFF;" d="M192.25,148.795l-13.513-2.339c-2.009-0.348-3.356-2.259-3.008-4.268l2.339-13.513
			c0.348-2.009,2.259-3.356,4.268-3.008l13.513,2.339c2.009,0.348,3.356,2.259,3.008,4.268l-2.339,13.513
			C196.17,147.796,194.259,149.143,192.25,148.795z"/>
		<path style="opacity:0.6;fill:#FFFFFF;enable-background:new    ;" d="M193.724,134.13c-1.056-2.639-4.019-2.208-5.789-0.606
			c-1.129-2.103-3.775-3.505-5.656-1.375c-3.172,3.592,1.285,8.199,3.443,10.075c0.244,0.215,0.446,0.392,0.615,0.533
			c0.207-0.076,0.457-0.175,0.759-0.295C189.757,141.42,195.503,138.578,193.724,134.13z"/>
		<path style="fill:#407BFF;" d="M188.005,146.403c0,0-3.808,5.765-10.253,6.657c0,0,3.716-1.364,4.58-7.906L188.005,146.403z"/>
	</g>
</g>
<g id="Character">
	<g>
		<path style="fill:#B97964;" d="M192.587,186.273l3.706-9.315c0,0-0.334-3.59,0.01-4.073c0.343-0.483,9.378-6.6,9.378-6.6
			s1.397,3.348,1.312,4.838c-0.085,1.49-6.178,5.158-6.178,5.158l-3.695,9.129L192.587,186.273z"/>
		<path style="fill:#407BFF;" d="M199.79,181.14c0,0-12.13,27.62-17.14,29.99c-3.43,1.63-15.18-0.04-22.24-1.26
			c-3.25-0.56-5.5-1.02-5.5-1.02l4.3-5.73l3.31-4.41c0,0,10.9,4.51,15.12,5.3c4.22,0.79,16.75-25.77,16.75-25.77L199.79,181.14z"/>
		<path style="opacity:0.2;enable-background:new    ;" d="M160.41,209.87c-3.25-0.56-5.5-1.02-5.5-1.02l4.3-5.73
			C160.07,204.4,161.06,206.7,160.41,209.87z"/>
		<path style="fill:#263238;" d="M160.808,156.209c5.028,2.571,7.841,6.153,8.588,13.057c0.747,6.903-3.165,9.109,0,11.872
			c3.165,2.763,1.265,6.992-0.95,7.548c-2.215,0.556,1.543,3.332,1.543,3.332l-1.543,1.099c0,0,0.349,1.105-2.614,0
			c-2.964-1.105-1.678,1.357-6.376,1.906c-4.698,0.549-13.62,1.353-17.367-3.005c-3.748-4.358-2.219-11.04-4.253-13.779
			c-2.034-2.739,2.808-17.644,8.777-20.925C152.582,154.033,160.808,156.209,160.808,156.209z"/>
		<path style="fill:#B97964;" d="M105.43,157.319l3.248-9.485c0,0,2.59-2.509,2.643-3.099c0.054-0.59-2.825-11.113-2.825-11.113
			s-3.24,1.633-4.145,2.819c-0.905,1.186,1.334,7.937,1.334,7.937l-3.135,9.336L105.43,157.319z"/>
		<polygon style="fill:#B97964;" points="130.989,406.123 124.375,406.123 126.402,396.981 128.275,388.592 136.558,387.324 
			133.613,397.277 		"/>
		<polygon style="opacity:0.2;enable-background:new    ;" points="133.544,397.48 126.34,397.161 128.245,388.682 136.543,387.369 
					"/>
		<polygon style="fill:#B97964;" points="117.3,406.123 110.687,406.123 112.713,396.981 114.587,388.592 122.869,387.324 
			119.925,397.277 		"/>
		<polygon style="opacity:0.2;enable-background:new    ;" points="119.856,397.48 112.652,397.161 114.556,388.682 
			122.854,387.369 		"/>
		<g>
			<path style="fill:#263238;" d="M105.332,231.41c0,0-0.334,0.709-0.867,2.027c-2.487,6.152-9.308,25.574-6.759,48.097
				c1.507,13.319,16.228,37.291,18.418,50.353c2.549,15.206-4.125,42.007-2.413,61.67l10.517,0.922l3.171-1.996l9.012-1.343
				c0,0,23.466-53.362,23.039-71.813c-0.336-14.489-23.039-66.435-23.039-66.435l2.163-19.208"/>
			<path style="opacity:0.2;enable-background:new    ;" d="M129.052,392.239l-1.652,0.244l-2.699,1.701
				c1.721-5.994,16.544-57.883,16.808-69.303c0.293-12.134-16.974-55.194-16.974-55.194l4.429-7.998l-0.665,12.173
				c0,0,16.338,33.488,17.629,51.019C147.169,341.689,130.421,388.456,129.052,392.239z"/>
		</g>
		<path style="fill:#263238;" d="M122.515,405.836c0.017-0.729,8.975-0.158,8.975-0.158s5.511,5.605,10.864,6.865
			c5.354,1.26,2.362,4.472-3.621,4.472s-10.55,0-14.801,0C119.68,417.016,122.338,413.394,122.515,405.836z"/>
		<g>
			<path style="fill:#407BFF;" d="M132.49,406.836c-0.029-0.013-0.054-0.032-0.075-0.055l0-0.001l0,0
				c-0.017-0.019-0.031-0.041-0.041-0.065l0,0l0-0.001c-0.01-0.023-0.016-0.048-0.017-0.073l0,0l-0.001-0.001c0,0,0,0,0-0.001l0,0
				c-0.002-0.033,0.003-0.066,0.014-0.095c0.038-0.107,0.79-2.181,1.999-2.684c0.386-0.16,0.776-0.148,1.159,0.032
				c0.408,0.194,0.606,0.447,0.589,0.753c-0.027,0.471-0.665,0.943-1.393,1.332c0.756-0.072,1.533-0.052,2.009,0.22
				c0.252,0.145,0.413,0.35,0.478,0.606c0.135,0.531-0.044,0.813-0.217,0.955c-0.186,0.153-0.463,0.215-0.79,0.215
				C134.951,407.971,132.961,407.061,132.49,406.836z M133.31,406.686c1.321,0.559,2.961,1.052,3.383,0.706
				c0.037-0.031,0.148-0.122,0.059-0.474c-0.034-0.131-0.117-0.233-0.256-0.313c-0.248-0.142-0.626-0.196-1.056-0.196
				C134.75,406.409,133.929,406.549,133.31,406.686z M134.551,404.295c-0.702,0.291-1.256,1.31-1.536,1.925
				c1.326-0.504,2.607-1.2,2.63-1.603c0.007-0.125-0.197-0.241-0.32-0.299c-0.139-0.066-0.276-0.099-0.412-0.099
				C134.793,404.219,134.672,404.245,134.551,404.295z"/>
		</g>
		<polygon style="fill:#407BFF;" points="124.228,390.974 139.076,388.947 137.833,394.479 125.579,396.019 		"/>
		<path style="fill:#263238;" d="M108.826,405.836c0.017-0.729,8.975-0.158,8.975-0.158s5.511,5.605,10.864,6.865
			c5.354,1.26,2.362,4.472-3.621,4.472c-5.983,0-10.55,0-14.801,0C105.992,417.016,108.649,413.394,108.826,405.836z"/>
		<g>
			<path style="fill:#407BFF;" d="M118.801,406.836c-0.029-0.013-0.054-0.032-0.074-0.055l0-0.001l0,0
				c-0.017-0.019-0.031-0.041-0.041-0.065l0,0l0-0.001c-0.01-0.023-0.016-0.048-0.017-0.073l0,0l-0.001-0.001c0,0,0,0,0-0.001l0,0
				c-0.002-0.033,0.003-0.066,0.014-0.095c0.038-0.107,0.79-2.181,1.999-2.684c0.386-0.16,0.776-0.148,1.159,0.032
				c0.408,0.194,0.606,0.447,0.589,0.753c-0.027,0.471-0.666,0.943-1.394,1.332c0.756-0.072,1.533-0.052,2.009,0.22
				c0.252,0.145,0.413,0.35,0.478,0.606c0.135,0.531-0.043,0.813-0.217,0.955c-0.186,0.153-0.463,0.215-0.79,0.215
				C121.263,407.971,119.273,407.061,118.801,406.836z M119.621,406.686c1.321,0.559,2.962,1.052,3.383,0.706
				c0.037-0.031,0.148-0.122,0.059-0.474c-0.033-0.131-0.117-0.233-0.256-0.313c-0.248-0.142-0.626-0.196-1.056-0.196
				C121.062,406.409,120.24,406.549,119.621,406.686z M120.862,404.295c-0.702,0.291-1.256,1.31-1.536,1.925
				c1.326-0.504,2.607-1.2,2.63-1.603c0.007-0.125-0.197-0.241-0.32-0.299c-0.138-0.066-0.275-0.099-0.412-0.099
				C121.104,404.219,120.984,404.245,120.862,404.295z"/>
		</g>
		<polygon style="fill:#407BFF;" points="111.544,390.974 127.399,388.947 126.072,394.479 112.986,396.019 		"/>
		<g>
			<polygon points="107.255,227.09 105.702,231.552 136.989,239.821 138.825,234.544 			"/>
			
				<rect x="115.253" y="228.327" transform="matrix(0.96 0.28 -0.28 0.96 69.721 -23.1996)" style="fill:#263238;" width="1.602" height="8.163"/>
			
				<rect x="123.599" y="232.179" transform="matrix(0.97 0.2431 -0.2431 0.97 60.9203 -23.8651)" style="fill:#FFFFFF;" width="7.084" height="5.372"/>
			
				<rect x="134.581" y="232.762" transform="matrix(0.9599 0.2802 -0.2802 0.9599 71.7884 -28.447)" style="fill:#263238;" width="1.602" height="8.163"/>
		</g>
		<path style="fill:#407BFF;" d="M162.52,198.71c-1.36,1.77-2.62,3.43-3.78,5.02c-4.56,6.1-7.81,10.43-10.29,13.92
			c-3.4,4.79-5.35,8-7.24,12.04c-0.81,1.71-1.61,3.58-2.5,5.79l-31.46-8.39c3.55-13.16,6.79-22.57,9.36-29.24
			c0.87-2.24,1.66-4.17,2.36-5.83c0.7-1.66,1.31-3.04,1.82-4.2c0.02-0.06,0.05-0.12,0.08-0.19c1.59-3.56,5.55-5.44,9.32-4.42
			c2.26,0.61,4.91,1.38,7.36,2.21c4.56,1.69,8.99,3.7,13.28,6.01C154.89,193.57,158.79,196,162.52,198.71z"/>
		<g>
			<path style="fill:#B97964;" d="M142.214,197.589c-5.295-6.021-4.843-10.151-4.843-10.151c6.934-0.237,9.242-9.199,9.242-9.199
				l6.002,7.67c-1.235,1.021-2.192,1.946-2.945,2.777c-3.896,4.312-1.961,6.092-1.961,6.092
				C146.889,198.25,142.214,197.589,142.214,197.589z"/>
			<path style="opacity:0.2;enable-background:new    ;" d="M152.615,185.908c-1.235,1.021-2.192,1.946-2.945,2.777
				c-2.756-3.854-3.057-10.447-3.057-10.447L152.615,185.908z"/>
		</g>
		<g>
			<path style="fill:#B97964;" d="M159.152,157.607c8.098,1.972,9.648,6.943,8.209,15.432c-1.799,10.609-5.915,17.456-15.498,12.762
				C138.849,179.427,145.704,154.331,159.152,157.607z"/>
			<path style="fill:#A24E3F;" d="M162.237,171.312c0,0,0.607,2.388,1.538,3.932c0,0-0.962,0.933-2.358,0.396L162.237,171.312z"/>
			<g>
				<path style="fill:#263238;" d="M157.442,169.442c-0.147,0.669-0.627,1.132-1.073,1.034c-0.446-0.098-0.689-0.719-0.542-1.388
					c0.146-0.669,0.627-1.132,1.073-1.035C157.345,168.152,157.588,168.773,157.442,169.442z"/>
				<path style="fill:#263238;" d="M156.706,168.046l1.58-0.252C158.286,167.794,157.294,168.859,156.706,168.046z"/>
			</g>
			<g>
				<path style="fill:#263238;" d="M165.789,171.124c-0.146,0.669-0.626,1.132-1.073,1.035c-0.446-0.098-0.689-0.719-0.542-1.388
					c0.146-0.669,0.627-1.132,1.073-1.035C165.693,169.833,165.935,170.455,165.789,171.124z"/>
				<path style="fill:#263238;" d="M165.053,169.727l1.58-0.252C166.633,169.475,165.641,170.541,165.053,169.727z"/>
			</g>
			
				<path style="fill:none;stroke:#263238;stroke-width:0.7247;stroke-linecap:round;stroke-linejoin:round;stroke-miterlimit:10;" d="
				M158.723,163.831c0,0-2.204-0.85-3.81,0.369"/>
			
				<path style="fill:none;stroke:#263238;stroke-width:0.7247;stroke-linecap:round;stroke-linejoin:round;stroke-miterlimit:10;" d="
				M164.692,164.922c0,0,1.559-0.181,3.065,1.452"/>
			<path style="fill:#263238;" d="M146.978,169.1c0,0,5.407-5.731,6.084-11.007c0,0,17.644-2.647,14.469,13.834
				c0,0,5.09-14.081-8.752-17.794c-13.82-3.707-18.743,16.667-13.032,24.486C145.748,178.619,143.622,172.691,146.978,169.1z"/>
			<path style="fill:#B97964;" d="M147.885,171.132c0.263-1.317-0.545-3.851-3.034-4.177c-2.576-0.338-5.027,4.523,0.913,7.282
				C146.617,174.632,147.335,173.88,147.885,171.132z"/>
			<path style="fill:#263238;" d="M172.409,175.574c-2.106-1.99-1.781-5.4-0.137-8.845c1.645-3.445-2.615-5.978-2.615-5.978
				s-0.343-4.343-3.677-6.088c-0.609-0.319-3.384-0.002-3.384-0.002c-3.637-3.983-9.489-7.284-14.082-2.071
				c-2.708,3.074-5.398-0.077-9.689,6.33c-3.096,4.622-0.936,8.7-1.839,10.186c-4.158,6.842,1.249,8.694,2.546,11.07
				c0,0,2.86-1.364,2.619-2.178c-1.944-6.554,1.459-10.806,4.089-9.756c2.631,1.049,4.522,0.762,6.434-1.647
				c1.912-2.409,0.579-5.016,4.993-5.602c4.414-0.586,4.865-3.128,4.865-3.128s-0.056,3.349,3.632,5.277
				c3.688,1.928,2.238,4.258,1.723,7.548c-0.515,3.29,1.11,4.56,3.971,6.942s-0.167,4.116-0.167,4.116
				C174.031,180.615,174.515,177.563,172.409,175.574z"/>
			<g>
				<path style="fill:#263238;" d="M160.808,179.308c-0.818,0.667-1.999,2.089-1.999,2.089c-0.148-0.084-0.296-0.168-0.44-0.259
					c-1.98-1.188-2.507-2.393-2.489-3.369c0.011-0.534,0.193-1.002,0.387-1.355c0.22-0.412,0.47-0.655,0.47-0.655
					c0.674,1.257,2.434,2.506,3.403,3.134C160.542,179.16,160.808,179.308,160.808,179.308z"/>
				<path style="fill:#FFFFFF;" d="M160.139,178.893l-0.606,0.601c-1.862-1.123-3.023-2.164-3.267-3.08
					c0.22-0.412,0.47-0.655,0.47-0.655C157.41,177.015,159.171,178.265,160.139,178.893z"/>
				<path style="fill:#DE5753;" d="M158.369,181.138c-1.98-1.188-2.507-2.393-2.489-3.369c0.659,0.431,1.406,1.023,1.937,1.755
					C158.225,180.081,158.356,180.642,158.369,181.138z"/>
			</g>
		</g>
		<path style="fill:#407BFF;" d="M140.264,182.934c0,0,5.659,7.231,12.351,7.363c0,0-3.329,5.407-2.274,8.176
			c0,0-4.22,4.352-10.022,0.527s-6.725-13.978-6.725-13.978S137.758,184.803,140.264,182.934z"/>
		<path style="fill:#407BFF;" d="M128.301,182.934c0,0-12.411-3.028-21.114-4.356c-8.703-1.329,1.88-28.674,1.88-28.674
			l-5.275-2.573c0,0-12.132,26.228-6.646,34.415c2.976,4.442,21.822,10.271,21.822,10.271L128.301,182.934z"/>
		<path style="fill:#263238;" d="M168.446,191.22c0,0,0.673-1.714,2.624,0c1.952,1.714,2.479-0.996,3.666-0.762
			c1.187,0.234,1.319-1.844,4.22-2.519c2.901-0.675,3.297-0.675,3.824-1.994c0.527-1.319,2.637-1.319,2.637-1.319
			s-1.978-1.834-0.527-3.489c1.451-1.654-0.132-5.331-0.132-5.331s2.769-0.807,3.824,1.171c1.055,1.978,0.923,2.515,0.923,2.515
			s0.396-3.206-0.527-3.85c0,0,4.22,2.655,2.506,5.753c-1.714,3.098-4.22,3.757-4.22,3.757s-0.923,3.239-2.374,3.532
			c-1.451,0.292-2.374,1.215-3.429,2.007c-1.055,0.791-0.923,0.748-2.901,1.099c-1.978,0.352-2.637,3.209-3.824,3.231
			s-1.583-0.286-2.769,0c-1.187,0.285-1.636,2.423-3.521,1.354c-1.885-1.069-2.853-0.585-3.754-1.354
			c-0.901-0.77-5.088,0.285-5.236-2.352C159.308,190.033,166.111,188.319,168.446,191.22z"/>
		<path style="opacity:0.2;enable-background:new    ;" d="M128.28,191.04c-0.34,0.45-6.54,8.39-11.67,6.81
			c0.87-2.24,1.66-4.17,2.36-5.83C118.97,192.02,125.31,193.78,128.28,191.04z"/>
		<path style="opacity:0.2;enable-background:new    ;" d="M135.552,184.766c0,0,2.065,8.817,7.552,11.103
			c5.487,2.285,6.51-0.406,6.51-0.406s-0.548,7.725-6.51,4.833C136.538,197.111,134.105,190.674,135.552,184.766z"/>
		<polygon style="opacity:0.7;fill:#FFFFFF;enable-background:new    ;" points="138.159,224.382 132.807,219.314 124.727,220.919 
			128.9,214.184 125.513,207.779 133.443,208.683 139.431,203.12 140.159,210.415 147.246,213.381 139.766,216.985 		"/>
	</g>
</g>
</svg>
