<?xml version="1.0" encoding="UTF-8"?>
<svg viewBox="0 0 709 486.8949" xmlns="http://www.w3.org/2000/svg">
 <g transform="translate(742.22 -421.5)" fill="#0a79f0">
  <path d="m-441.42 430.95c-0.72735 0-7.1106 1.5366-14.177 3.4241-16.105 4.3018-28.836 7.5716-58.03 14.838-12.687 3.1579-29.556 7.4258-37.485 9.4915s-22.852 5.7948-33.16 8.29l-18.743 4.5355-10.573 7.419c-5.815 4.0756-14.466 10.23-19.223 13.667s-12.893 9.1133-18.082 12.645l-9.4314 6.4278h-68.122l0.24029 117.5 0.24029 117.5 26.762 0.27032 26.792 0.2403 18.382 17.061c25.289 23.445 29.585 27.236 30.457 26.913 0.78448-0.29088 57.981-54.262 78.455-74.04 14.867-14.362 13.749-14.237 31.208-2.9736 24.196 15.609 33.044 21.208 35.233 22.347 1.925 1.0022 2.5042 0.8017 4.8058-1.682 1.4394-1.5533 3.0457-3.4198 3.5743-4.145 7.8812-10.812 17.64-21.001 20.094-20.995 2.7122 7e-3 6.7208 2.624 20.695 13.456 24.626 19.089 34.321 26.548 38.507 29.586 5.1296 3.7229 28.372 21.153 38.086 28.565 3.7691 2.8757 7.1317 5.9013 7.449 6.7281 0.75799 1.9753-1.8943 8.6388-5.3164 13.396l-2.7333 3.8146v57.219l3.6044-2.0425c1.9824-1.1313 9.6597-5.6054 17.061-9.912s15.511-8.9836 18.022-10.423l4.5655-2.6432v-42.982c0-39.143-0.15039-43.253-1.682-46.016-0.92512-1.6685-5.5748-6.6144-10.333-10.993-16.112-14.829-68.228-63.953-69.564-65.569-1.3838-1.6744-1.819-16.016-0.60073-19.854 0.80252-2.5285 4.3089-2.5045 7.5692 0.0601 2.2229 1.7485 2.523 2.6994 2.523 7.6593v5.6468l41.811 39.167 41.811 39.197v46.256c0 25.438 0.25854 46.484 0.57069 46.797 0.6095 0.6095 12.393-6.3303 27.543-16.22l9.3713-6.0974v-113.93l-40.129-40.459c-22.068-22.252-42.183-42.869-44.694-45.805-4.4272-5.1769-4.5655-5.5269-4.5655-11.564 0-3.4241 0.27032-7.5692 0.60072-9.2212 0.53314-2.6657 0.96969-3.0036 3.9047-3.0036 6.1029 0 7.0285 1.1675 7.0285 8.8006v6.7882l44.694 44.904 44.694 44.904v61.304c0 61.186 9.7e-4 61.334 1.9524 60.824 1.0751-0.28115 10.266-5.517 20.425-11.624l18.472-11.113v-134.14l-12.946-12.495c-24.578-23.702-82.266-79.78-99.721-96.957l-17.481-17.241-7.0285 5.3765c-3.854 2.9516-10.675 8.2708-15.168 11.804-11.165 8.78-12.036 9.2848-17.151 10.242-10.673 1.9983-9.7618 1.325-9.7618 7.3589v5.4065l-22.587 16.82c-37.492 27.928-42.261 31.409-45.415 33.04-2.5913 1.34-6.9641 1.5619-30.277 1.5619h-27.243l-14.387-13.036c-7.8995-7.1686-17.686-15.927-21.746-19.464-6.1305-5.3394-7.3939-6.9396-7.449-9.4014-0.0608-2.7162 0.93046-3.6827 11.864-11.534 6.5636-4.7131 22.567-16.29 35.563-25.741l23.639-17.181v-20.905c0-15.566 0.30685-21.144 1.2014-21.866 1.0742-0.86748 14.937-8.3653 54.065-29.255 6.8723-3.669 13.069-7.2319 13.757-7.8996 1.0172-0.98747-0.81603-2.8682-9.8519-10.032-6.1099-4.844-11.708-8.8006-12.435-8.8006zm83.892 0.78094c-1.3019 0.0315-2.1774 0.28266-3.334 0.63077-2.3399 0.7042-6.535 2.758-9.3113 4.5655-4.5396 2.9555-47.461 26.041-83.621 44.964-7.576 3.9648-15.806 8.438-18.292 9.942l-4.5355 2.7333v40.759l-12.826 9.5516c-7.0578 5.2666-17.924 13.258-24.149 17.751s-15.613 11.306-20.845 15.138l-9.4915 6.9684 8.4102 7.6593c4.6379 4.2154 8.8727 7.6838 9.4014 7.6893s6.4312-3.763 13.126-8.3801 16.73-11.546 22.287-15.379 10.916-6.9684 11.894-6.9684c5.2497 0 8.0306 6.5672 4.2351 10.002-1.0004 0.90539-8.4615 6.1519-16.58 11.654s-15.21 10.352-15.739 10.783-2.475 1.7505-4.3252 2.9135-3.9694 2.5135-4.7157 3.0036c-1.0946 0.7189-0.81587 1.3495 1.4417 3.334l2.7934 2.463 24.75 0.03 24.75 0.03 6.0073-4.2051c3.3016-2.3135 16.82-12.318 30.036-22.227l24.029-18.022 0.48058-26.042 0.48058-26.011 2.6432-1.5018c2.378-1.3295 2.9084-1.3293 5.2864 0l2.6432 1.5018 0.27033 17.121 0.27033 17.151 4.7457-0.45055c3.1015-0.29802 5.8302-1.3077 7.8996-2.9135 1.7404-1.3505 10.074-7.8905 18.532-14.538 11.464-9.0093 16.089-12.089 18.142-12.105 2.8163-0.0217 15.874 12.253 83.261 78.275 11.366 11.136 29.443 28.81 40.159 39.288l19.464 19.073-0.03 62.145c-0.022 34.184-0.0411 64.2-0.03 66.711l0.03 4.5655h43.463l23.098-22.347 23.068-22.347 30.637-0.30036 30.637-0.27033v-228.67h-54.936l-8.5604-7.2087c-4.6993-3.9648-8.8141-7.2087-9.1611-7.2087s-5.4469-4.0196-11.324-8.9508-11.251-9.3078-11.924-9.7017-10.621-3.0274-22.107-5.8571-27.796-6.8899-36.254-9.0109-23.813-5.8416-34.121-8.29-21.338-5.2595-24.51-6.2476-13.552-3.6187-23.068-5.827-24.005-5.7046-32.199-7.7794c-30.734-7.7825-38.476-9.7362-42.381-9.6417zm-173.82 286.79c-0.7895 0.2899-27.518 25.491-70.465 66.47-10.441 9.9623-18.983 18.41-18.983 18.773 0 0.65161 4.3514 4.3886 24.029 20.575 5.5507 4.5658 13.54 11.149 17.751 14.628s8.1381 6.1862 8.7406 6.0373 6.9327-6.9744 14.057-15.168 14.659-17.12 16.73-19.824c3.0092-3.9297 31.276-37.196 49.8-58.631 2.6115-3.0219 3.1535-4.2251 2.2527-4.956-6.0697-4.9247-42.849-28.294-43.913-27.904zm80.648 5.2564-2.6132 2.523c-1.4482 1.3943-5.6709 6.2527-9.3713 10.783s-22.407 26.594-41.57 49.049-34.842 41.059-34.842 41.33-4.1232 5.309-9.1611 11.204-8.825 11.059-8.4102 11.474 13.513 4.041 29.105 8.0497 30.517 7.8759 33.16 8.5904 5.0722 1.3532 5.3765 1.4117 1.4595-0.87642 2.5831-2.0725 4.5638-5.4861 7.6292-9.5215 11.936-15.577 19.734-25.651 14.177-18.575 14.177-18.893 2.2938-3.4884 5.1062-7.0285 11.529-14.862 19.373-25.17 14.643-19.246 15.108-19.854c0.55443-0.72404-0.40738-2.2741-2.7934-4.5355-2.0032-1.8986-4.0175-3.4796-4.4754-3.4842-0.45795-5e-3 -7.1621-4.8729-14.898-10.843s-16.106-12.328-18.623-14.117l-4.5956-3.2439zm-85.033 12.976 4.0249 3.9047 4.0249 3.9348-4.7457 4.2652c-2.612 2.3484-4.7457 4.8621-4.7457 5.5868s4.343 4.6077 9.6417 8.6204l9.6417 7.2988-3.1238 4.3553c-1.719 2.3938-3.3588 4.4653-3.6344 4.6256s-6.5659-4.2511-13.967-9.7918-13.759-10.563-14.147-11.174c-1.7509-2.7509-0.26784-5.18 8.1398-13.186l8.8908-8.4402zm83.831 5.6468c2.1404-0.0431 9.8812 6.0316 9.071 7.1186-0.42324 0.56781-2.8228 3.6978-5.3465 6.9684s-4.3618 6.3518-4.0549 6.8483 4.2396 3.0103 8.7406 5.5868 8.1982 5.2178 8.1999 5.8571c4e-3 1.3033-5.0074 9.8867-5.767 9.882-0.26817-2e-3 -3.9408-2.1357-8.1699-4.7457s-9.9029-6.0691-12.615-7.6893c-5.1506-3.0766-7.9389-7.3695-6.4578-9.9721 2.2192-3.8996 15.379-19.833 16.4-19.854zm56.979 24.029c-0.47731 0.0457-0.79129 0.44938-1.2916 1.2615-1.108 1.7988-6.607 8.9872-27.844 36.464-6.4454 8.3394-13.661 17.93-16.039 21.296s-11.168 15.028-19.554 25.951-15.098 20.044-14.898 20.244 10.101 2.7927 21.987 5.767 23.326 6.0218 25.441 6.7582 4.5285 1.3564 5.3765 1.3817c0.91861 0.0273 3.444-3.0815 6.2476-7.6593 2.5881-4.2261 10.708-16.877 18.022-28.114s13.544-21.074 13.847-21.866 3.2061-5.5507 6.4578-10.573c10.703-16.53 14.928-23.689 14.928-25.291 0-1.397-23.947-20.812-30.457-24.69-1.1057-0.65868-1.7454-0.97674-2.2227-0.93113zm-273.39 4.5956c-0.13772 7e-3 -0.25996 0.0358-0.36044 0.0901-1.2374 0.66977-26.612 23.239-26.612 23.669 0 0.6374 32.943 30.198 33.641 30.187 0.52864-9e-3 6.8002-5.6306 13.937-12.495l12.976-12.495-6.2476-5.8571c-18.764-17.634-25.267-23.192-27.333-23.098zm272.13 9.7918c1.1008 0 8.9508 6.165 8.9508 7.0285 0 0.51675-1.5409 2.838-3.4241 5.1362s-3.1557 4.5985-2.8234 5.1362 2.9545 2.4877 5.827 4.3252 5.2263 3.6133 5.2263 3.9348-0.75692 1.7183-1.682 3.1238-2.1369 3.3918-2.7033 4.4153-1.4315 1.9611-1.9223 2.0725-5.3345-2.7911-10.753-6.4578c-9.4092-6.3671-9.8519-6.8164-9.8519-10.092 0-2.8171 1.1383-4.7897 6.3377-11.023 3.4818-4.1744 6.5538-7.5992 6.8182-7.5992zm-233.98 31.718c-0.42454 0-4.008 3.2665-7.9596 7.2688l-7.1787 7.2988 3.3641 2.9135c1.8502 1.6112 7.473 5.6746 12.495 9.0109s13.673 9.3258 19.223 13.306 10.424 7.2473 10.813 7.2688 3.6328-1.5279 7.2087-3.4241c9.4506-5.0115 9.3337-4.7791 4.7457-8.9208-7.2061-6.5051-41.92-34.722-42.712-34.722zm261.29 15.409c-0.89345 0.28065-2.7108 3.1231-16.13 24.48-5.9743 9.5084-10.873 17.653-10.873 18.112 0 0.95415 11.898 0.0409 21.146-1.622l6.2476-1.1113 0.27033-19.944c0.14288-10.966-0.0733-19.921-0.48059-19.914-0.0544 8.8e-4 -0.12065-0.0187-0.18021 0zm-184.24 35.954c-0.11645 0.01-0.20418 0.054-0.24029 0.0901-1.245 1.245 23.787 22.637 25.411 21.716 0.58242-0.33034 4.1562-2.9592 7.9296-5.8571 7.968-6.1193 8.7549-5.2782-8.8307-9.7318-6.4225-1.6265-14.457-3.7842-17.842-4.8058-2.9614-0.89393-5.6127-1.4766-6.4278-1.4117zm77.374 20.725c-1.1836 8e-3 -1.6882 1.378-2.1626 5.9172-0.34063 3.2589-0.36773 6.1785-0.0601 6.4878 0.71918 0.72325 12.016 1.6632 22.557 1.8622 8.171 0.1543 8.2524 0.12257 10.453-2.8534 1.7871-2.4171 1.9594-3.1305 0.90109-3.7846-1.5144-0.93593-29.373-7.6442-31.688-7.6292z"/>
 </g>
</svg>
