<svg width="500" height="500" viewBox="0 0 500 500" fill="none" xmlns="http://www.w3.org/2000/svg">
<path d="M400.86 199.5C398.416 186.597 395.292 173.833 391.5 161.26C380.1 124.87 357.41 88.05 318.44 75.67C289.67 66.54 258.62 72.84 234.31 91.45C196.18 120.63 168.43 160.45 126.71 185.72C91.8802 206.83 73.6503 240.93 85.3603 289.13C97.0703 337.33 136.19 365.41 179 362C214.58 359.13 251.78 362.2 282.54 379.47C310.03 394.9 358.6 381.47 398.78 339.32C422.19 314.75 419.92 283.51 412.29 254.32C407.57 236.24 404.51 217.8 400.86 199.5Z" fill="#8acaff"/>
<path opacity="0.7" d="M400.86 199.5C398.416 186.597 395.292 173.833 391.5 161.26C380.1 124.87 357.41 88.05 318.44 75.67C289.67 66.54 258.62 72.84 234.31 91.45C196.18 120.63 168.43 160.45 126.71 185.72C91.8802 206.83 73.6503 240.93 85.3603 289.13C97.0703 337.33 136.19 365.41 179 362C214.58 359.13 251.78 362.2 282.54 379.47C310.03 394.9 358.6 381.47 398.78 339.32C422.19 314.75 419.92 283.51 412.29 254.32C407.57 236.24 404.51 217.8 400.86 199.5Z" fill="white"/>
<path d="M441.41 423.48C441.41 426.6 356.41 429.14 251.59 429.14C146.77 429.14 61.7598 426.6 61.7598 423.48C61.7598 420.36 146.76 417.82 251.59 417.82C356.42 417.82 441.41 420.36 441.41 423.48Z" fill="#ED6A37"/>
<path opacity="0.3" d="M441.41 423.48C441.41 426.6 356.41 429.14 251.59 429.14C146.77 429.14 61.7598 426.6 61.7598 423.48C61.7598 420.36 146.76 417.82 251.59 417.82C356.42 417.82 441.41 420.36 441.41 423.48Z" fill="white"/>
<path d="M405.07 314.51C405.07 314.56 407.64 311.86 407.78 311.67C409.41 309.49 411.28 304.31 409.51 301.82C409.205 301.416 408.818 301.08 408.375 300.835C407.932 300.59 407.442 300.441 406.938 300.398C406.433 300.354 405.925 300.417 405.447 300.583C404.968 300.749 404.53 301.014 404.16 301.36C402.54 302.78 402.16 305.41 402.3 307.44C402.47 309.82 405.07 314.5 405.07 314.51Z" fill="#0057FF"/>
<path d="M428.43 305.21C425.93 303.46 420.77 305.37 418.6 307.01C418.41 307.16 415.73 309.72 415.78 309.74H415.84C415.02 310.04 414.15 310.36 413.2 310.74C411.46 311.44 409.5 312.26 407.42 313.28C405.174 314.372 402.991 315.587 400.88 316.92C398.514 318.405 396.285 320.099 394.22 321.98C394.194 322.001 394.17 322.024 394.15 322.05C394.59 321.28 395.76 319.05 395.83 318.89C396.83 316.35 397.26 310.89 394.9 308.94C394.496 308.632 394.032 308.412 393.538 308.295C393.044 308.179 392.531 308.167 392.032 308.261C391.533 308.355 391.059 308.554 390.642 308.843C390.225 309.132 389.873 309.506 389.61 309.94C388.43 311.74 388.75 314.37 389.43 316.29C390.19 318.46 393.64 322.04 393.92 322.29C391.86 324.255 389.936 326.356 388.16 328.58C387.16 329.87 386.11 331.2 385.16 332.58C385.52 331.9 385.84 331.28 385.87 331.19C386.87 328.66 387.3 323.19 384.94 321.24C384.537 320.932 384.074 320.713 383.58 320.596C383.087 320.479 382.575 320.467 382.077 320.562C381.578 320.656 381.106 320.854 380.689 321.143C380.273 321.433 379.922 321.806 379.66 322.24C378.47 324.03 378.8 326.67 379.47 328.58C380.14 330.49 383.04 333.65 383.81 334.46L382.64 336C380.84 338.51 379.06 341 377.23 343.42C376.59 344.27 375.93 345.09 375.23 345.9C375.55 345.29 375.82 344.78 375.85 344.7C376.85 342.16 377.28 336.7 374.92 334.7C374.517 334.39 374.053 334.17 373.558 334.052C373.064 333.934 372.55 333.922 372.051 334.016C371.552 334.111 371.078 334.309 370.661 334.6C370.243 334.89 369.892 335.265 369.63 335.7C368.44 337.5 368.77 340.13 369.45 342.05C370.13 343.97 372.73 346.81 373.64 347.78C372.94 348.6 372.24 349.41 371.52 350.17C371.02 350.68 370.58 351.17 370.04 351.68L368.51 353.12C367.51 354 366.51 354.92 365.46 355.76C364.76 356.35 364.09 356.89 363.46 357.44C364.1 356.61 365.34 354.94 365.46 354.79C366.586 352.675 367.151 350.306 367.1 347.91C367.233 347.68 367.347 347.439 367.44 347.19C367.627 346.718 367.712 346.213 367.691 345.706C367.67 345.199 367.543 344.702 367.318 344.248C367.092 343.793 366.774 343.391 366.383 343.068C365.992 342.744 365.538 342.507 365.05 342.37C362.05 341.64 357.95 345.27 356.52 347.59C356.44 347.73 355.68 349.31 355.23 350.32C355.4 349.69 355.59 349.07 355.76 348.42C356.12 347.13 356.44 345.83 356.76 344.42C356.9 343.74 357.05 343.05 357.2 342.36C357.35 341.67 357.44 340.93 357.57 340.21C357.82 338.53 358 336.82 358.15 335.09C359.28 335.4 363.31 336.45 365.33 336.09C367.35 335.73 369.82 334.83 370.84 332.94C371.098 332.503 371.261 332.017 371.318 331.513C371.376 331.009 371.326 330.498 371.172 330.015C371.018 329.531 370.763 329.086 370.425 328.708C370.087 328.329 369.673 328.027 369.21 327.82C366.39 326.64 361.76 329.61 359.99 331.68C359.88 331.81 358.78 333.44 358.19 334.35C358.27 333.35 358.35 332.27 358.4 331.21C358.52 328.21 358.56 325.08 358.61 322C358.61 321.06 358.61 320.12 358.67 319.18C359.07 319.29 363.84 320.64 366.1 320.29C368.1 319.99 370.59 319.04 371.62 317.14C371.875 316.702 372.035 316.215 372.089 315.711C372.144 315.208 372.093 314.698 371.938 314.215C371.784 313.733 371.529 313.288 371.192 312.91C370.855 312.531 370.442 312.228 369.98 312.02C367.17 310.85 362.53 313.82 360.76 315.89C360.63 316.04 359.05 318.39 358.67 319.01C358.72 316.94 358.79 314.87 358.94 312.84C359.133 310.096 359.5 307.367 360.04 304.67C360.23 304.67 365.2 306.15 367.52 305.79C369.52 305.49 372 304.54 373.03 302.64C373.285 302.202 373.445 301.716 373.501 301.213C373.556 300.71 373.506 300.2 373.352 299.718C373.199 299.235 372.945 298.79 372.609 298.412C372.273 298.033 371.861 297.729 371.4 297.52C368.58 296.35 363.94 299.31 362.18 301.39C362.06 301.52 360.85 303.31 360.3 304.17L360.14 304.11C360.758 301.408 361.618 298.767 362.71 296.22C363.29 294.81 363.92 293.5 364.57 292.22C365.47 292.58 369.57 294.22 371.71 294.1C373.85 293.98 376.31 293.34 377.54 291.57C377.842 291.163 378.055 290.697 378.165 290.203C378.276 289.708 378.281 289.196 378.181 288.699C378.081 288.202 377.878 287.732 377.585 287.319C377.292 286.906 376.915 286.558 376.48 286.3C373.81 284.83 368.87 287.3 366.89 289.13C366.78 289.23 365.8 290.38 365.09 291.23C365.39 290.67 365.69 290.08 365.99 289.54C367.11 287.54 368.25 285.74 369.28 284.17C369.87 283.29 370.42 282.5 370.95 281.76C372.01 281.66 376.31 281.17 378.12 280.14C379.93 279.11 381.85 277.35 382.12 275.21C382.202 274.71 382.178 274.198 382.049 273.708C381.919 273.218 381.688 272.76 381.37 272.366C381.052 271.971 380.654 271.648 380.203 271.418C379.751 271.188 379.256 271.056 378.75 271.03C375.7 270.95 372.45 275.38 371.55 277.95C371.47 278.18 370.65 281.79 370.7 281.78H370.77C370.25 282.447 369.7 283.207 369.12 284.06C368.05 285.61 366.86 287.37 365.7 289.37C364.423 291.515 363.271 293.732 362.25 296.01C361.098 298.558 360.171 301.201 359.48 303.91C359.485 303.943 359.485 303.977 359.48 304.01C359.48 303.12 359.18 300.63 359.14 300.44C358.58 297.78 355.91 292.96 352.88 292.66C352.374 292.622 351.866 292.69 351.389 292.862C350.911 293.033 350.475 293.303 350.109 293.654C349.743 294.005 349.455 294.429 349.264 294.899C349.073 295.368 348.983 295.873 349 296.38C349 298.53 350.73 300.55 352.35 301.77C354.18 303.16 359.03 304.25 359.42 304.33C358.792 307.108 358.348 309.924 358.09 312.76C357.94 314.41 357.83 316.07 357.74 317.76C357.67 316.99 357.6 316.3 357.58 316.21C357.01 313.54 354.34 308.73 351.31 308.42C350.804 308.382 350.296 308.45 349.819 308.622C349.341 308.793 348.905 309.063 348.539 309.414C348.173 309.765 347.885 310.189 347.694 310.659C347.503 311.128 347.413 311.633 347.43 312.14C347.43 314.29 349.16 316.31 350.78 317.54C352.4 318.77 356.55 319.79 357.64 320.05C357.64 320.69 357.58 321.33 357.56 321.97C357.44 325.05 357.34 328.13 357.15 331.14C357.08 332.2 356.97 333.25 356.87 334.29C356.81 333.61 356.74 333.03 356.73 332.95C356.16 330.28 353.49 325.47 350.46 325.16C349.954 325.122 349.446 325.19 348.969 325.362C348.491 325.533 348.055 325.803 347.689 326.154C347.323 326.505 347.035 326.929 346.844 327.399C346.653 327.868 346.563 328.373 346.58 328.88C346.58 331.04 348.31 333.05 349.93 334.28C351.55 335.51 355.3 336.44 356.59 336.74C356.46 337.81 356.32 338.88 356.14 339.9C356 340.6 355.92 341.29 355.74 341.98L355.26 343.98C354.9 345.27 354.55 346.61 354.17 347.86C353.91 348.73 353.65 349.56 353.39 350.4C353.47 349.34 353.58 347.27 353.57 347.09C353.42 344.38 351.51 339.21 348.57 338.45C348.076 338.337 347.564 338.329 347.068 338.427C346.571 338.524 346.1 338.725 345.686 339.017C345.272 339.308 344.924 339.683 344.665 340.118C344.405 340.553 344.24 341.037 344.18 341.54C343.85 343.67 345.25 345.92 346.67 347.38C348.09 348.84 352.67 350.75 353.23 350.97C352.79 352.35 352.36 353.68 351.93 354.97C350.44 359.32 349.04 362.89 348.03 365.37C348.03 365.46 347.96 365.54 347.92 365.62L349.74 366.62C349.8 366.46 349.87 366.3 349.93 366.13C350.93 363.6 352.24 359.96 353.64 355.53C354.09 354.13 354.54 352.63 354.99 351.08C356.516 351.271 358.052 351.371 359.59 351.38C360.14 353.61 362.69 357.27 363.02 357.74C361.9 358.65 360.8 359.53 359.75 360.34C356.11 363.15 352.97 365.34 350.75 366.86L350.49 367.04L352.49 368.14C354.65 366.59 357.49 364.44 360.86 361.76C362 360.84 363.21 359.83 364.43 358.76C364.88 359.14 368.53 362.24 370.69 362.86C372.64 363.42 375.29 363.6 377.01 362.31C377.425 362.02 377.775 361.646 378.037 361.213C378.298 360.779 378.466 360.295 378.528 359.792C378.59 359.289 378.546 358.779 378.398 358.295C378.25 357.81 378.002 357.362 377.67 356.98C375.61 354.73 370.16 355.48 367.67 356.62C367.53 356.69 366.03 357.62 365.09 358.18C365.59 357.75 366.09 357.34 366.58 356.89C367.58 356.02 368.58 355.11 369.64 354.13L371.14 352.66C371.65 352.17 372.14 351.6 372.64 351.07C373.78 349.81 374.87 348.48 375.94 347.12C376.72 348 379.51 351.12 381.36 351.96C383.21 352.8 385.8 353.38 387.7 352.37C388.153 352.145 388.555 351.828 388.879 351.439C389.202 351.049 389.44 350.596 389.578 350.109C389.716 349.622 389.749 349.111 389.677 348.61C389.605 348.109 389.429 347.629 389.16 347.2C387.46 344.67 381.96 344.58 379.34 345.33C379.17 345.38 377.34 346.13 376.34 346.56C376.97 345.74 377.62 344.92 378.23 344.06C380.02 341.59 381.75 339.06 383.49 336.5L385.1 334.18C385.37 334.49 388.61 338.25 390.69 339.18C392.53 340.03 395.12 340.61 397.02 339.59C397.476 339.368 397.88 339.052 398.205 338.663C398.53 338.273 398.77 337.82 398.908 337.332C399.045 336.844 399.079 336.332 399.005 335.83C398.931 335.328 398.752 334.848 398.48 334.42C396.78 331.89 391.28 331.8 388.66 332.56C388.47 332.61 385.85 333.7 385.2 334.01C386.38 332.31 387.58 330.62 388.83 329.01C390.496 326.822 392.307 324.747 394.25 322.8C394.38 322.95 397.74 326.88 399.86 327.86C401.71 328.72 404.3 329.29 406.2 328.28C406.655 328.057 407.057 327.74 407.382 327.351C407.706 326.961 407.945 326.508 408.083 326.021C408.22 325.533 408.254 325.022 408.181 324.52C408.108 324.019 407.931 323.538 407.66 323.11C405.96 320.57 400.46 320.49 397.84 321.24C397.67 321.29 395.68 322.12 394.74 322.53L394.64 322.38C396.646 320.475 398.818 318.751 401.13 317.23C402.4 316.37 403.65 315.62 404.89 314.93C405.44 315.72 407.99 319.33 409.81 320.43C411.63 321.53 414.06 322.34 416.06 321.54C416.538 321.366 416.973 321.094 417.338 320.74C417.704 320.386 417.99 319.96 418.179 319.488C418.368 319.016 418.455 318.509 418.434 318.001C418.414 317.493 418.286 316.995 418.06 316.54C416.65 313.83 411.19 313.15 408.51 313.61C408.36 313.61 406.9 314.05 405.85 314.37L407.53 313.45C409.58 312.39 411.53 311.53 413.24 310.79C414.24 310.38 415.12 310.02 415.96 309.7C416.91 310.2 420.75 312.17 422.83 312.3C424.91 312.43 427.49 312.03 428.89 310.4C429.21 310.033 429.452 309.606 429.603 309.143C429.754 308.68 429.809 308.192 429.766 307.707C429.723 307.222 429.583 306.751 429.353 306.322C429.123 305.893 428.809 305.514 428.43 305.21Z" fill="#0057FF"/>
<path d="M358.189 287.36C359.639 289.26 364.389 291.73 364.399 291.73C364.409 291.73 365.079 288.11 365.089 287.87C365.249 285.15 363.949 279.81 361.089 278.71C360.611 278.54 360.103 278.473 359.598 278.513C359.092 278.553 358.601 278.699 358.156 278.942C357.71 279.184 357.321 279.518 357.013 279.921C356.706 280.323 356.486 280.787 356.369 281.28C355.809 283.35 356.999 285.75 358.189 287.36Z" fill="#0057FF"/>
<g opacity="0.5">
<path d="M405.07 314.51C405.07 314.56 407.64 311.86 407.78 311.67C409.41 309.49 411.28 304.31 409.51 301.82C409.205 301.416 408.818 301.08 408.375 300.835C407.932 300.59 407.442 300.441 406.938 300.398C406.433 300.354 405.925 300.417 405.447 300.583C404.968 300.749 404.53 301.014 404.16 301.36C402.54 302.78 402.16 305.41 402.3 307.44C402.47 309.82 405.07 314.5 405.07 314.51Z" fill="white"/>
<path d="M428.43 305.21C425.93 303.46 420.77 305.37 418.6 307.01C418.41 307.16 415.73 309.72 415.78 309.74H415.84C415.02 310.04 414.15 310.36 413.2 310.74C411.46 311.44 409.5 312.26 407.42 313.28C405.174 314.372 402.991 315.587 400.88 316.92C398.514 318.405 396.285 320.099 394.22 321.98C394.194 322.001 394.17 322.024 394.15 322.05C394.59 321.28 395.76 319.05 395.83 318.89C396.83 316.35 397.26 310.89 394.9 308.94C394.496 308.632 394.032 308.412 393.538 308.295C393.044 308.179 392.531 308.167 392.032 308.261C391.533 308.355 391.059 308.554 390.642 308.843C390.225 309.132 389.873 309.506 389.61 309.94C388.43 311.74 388.75 314.37 389.43 316.29C390.19 318.46 393.64 322.04 393.92 322.29C391.86 324.255 389.936 326.356 388.16 328.58C387.16 329.87 386.11 331.2 385.16 332.58C385.52 331.9 385.84 331.28 385.87 331.19C386.87 328.66 387.3 323.19 384.94 321.24C384.537 320.932 384.074 320.713 383.58 320.596C383.087 320.479 382.575 320.467 382.077 320.562C381.578 320.656 381.106 320.854 380.689 321.143C380.273 321.433 379.922 321.806 379.66 322.24C378.47 324.03 378.8 326.67 379.47 328.58C380.14 330.49 383.04 333.65 383.81 334.46L382.64 336C380.84 338.51 379.06 341 377.23 343.42C376.59 344.27 375.93 345.09 375.23 345.9C375.55 345.29 375.82 344.78 375.85 344.7C376.85 342.16 377.28 336.7 374.92 334.7C374.517 334.39 374.053 334.17 373.558 334.052C373.064 333.934 372.55 333.922 372.051 334.016C371.552 334.111 371.078 334.309 370.661 334.6C370.243 334.89 369.892 335.265 369.63 335.7C368.44 337.5 368.77 340.13 369.45 342.05C370.13 343.97 372.73 346.81 373.64 347.78C372.94 348.6 372.24 349.41 371.52 350.17C371.02 350.68 370.58 351.17 370.04 351.68L368.51 353.12C367.51 354 366.51 354.92 365.46 355.76C364.76 356.35 364.09 356.89 363.46 357.44C364.1 356.61 365.34 354.94 365.46 354.79C366.586 352.675 367.151 350.306 367.1 347.91C367.233 347.68 367.347 347.439 367.44 347.19C367.627 346.718 367.712 346.213 367.691 345.706C367.67 345.199 367.543 344.702 367.318 344.248C367.092 343.793 366.774 343.391 366.383 343.068C365.992 342.744 365.538 342.507 365.05 342.37C362.05 341.64 357.95 345.27 356.52 347.59C356.44 347.73 355.68 349.31 355.23 350.32C355.4 349.69 355.59 349.07 355.76 348.42C356.12 347.13 356.44 345.83 356.76 344.42C356.9 343.74 357.05 343.05 357.2 342.36C357.35 341.67 357.44 340.93 357.57 340.21C357.82 338.53 358 336.82 358.15 335.09C359.28 335.4 363.31 336.45 365.33 336.09C367.35 335.73 369.82 334.83 370.84 332.94C371.098 332.503 371.261 332.017 371.318 331.513C371.376 331.009 371.326 330.498 371.172 330.015C371.018 329.531 370.763 329.086 370.425 328.708C370.087 328.329 369.673 328.027 369.21 327.82C366.39 326.64 361.76 329.61 359.99 331.68C359.88 331.81 358.78 333.44 358.19 334.35C358.27 333.35 358.35 332.27 358.4 331.21C358.52 328.21 358.56 325.08 358.61 322C358.61 321.06 358.61 320.12 358.67 319.18C359.07 319.29 363.84 320.64 366.1 320.29C368.1 319.99 370.59 319.04 371.62 317.14C371.875 316.702 372.035 316.215 372.089 315.711C372.144 315.208 372.093 314.698 371.938 314.215C371.784 313.733 371.529 313.288 371.192 312.91C370.855 312.531 370.442 312.228 369.98 312.02C367.17 310.85 362.53 313.82 360.76 315.89C360.63 316.04 359.05 318.39 358.67 319.01C358.72 316.94 358.79 314.87 358.94 312.84C359.133 310.096 359.5 307.367 360.04 304.67C360.23 304.67 365.2 306.15 367.52 305.79C369.52 305.49 372 304.54 373.03 302.64C373.285 302.202 373.445 301.716 373.501 301.213C373.556 300.71 373.506 300.2 373.352 299.718C373.199 299.235 372.945 298.79 372.609 298.412C372.273 298.033 371.861 297.729 371.4 297.52C368.58 296.35 363.94 299.31 362.18 301.39C362.06 301.52 360.85 303.31 360.3 304.17L360.14 304.11C360.758 301.408 361.618 298.767 362.71 296.22C363.29 294.81 363.92 293.5 364.57 292.22C365.47 292.58 369.57 294.22 371.71 294.1C373.85 293.98 376.31 293.34 377.54 291.57C377.842 291.163 378.055 290.697 378.165 290.203C378.276 289.708 378.281 289.196 378.181 288.699C378.081 288.202 377.878 287.732 377.585 287.319C377.292 286.906 376.915 286.558 376.48 286.3C373.81 284.83 368.87 287.3 366.89 289.13C366.78 289.23 365.8 290.38 365.09 291.23C365.39 290.67 365.69 290.08 365.99 289.54C367.11 287.54 368.25 285.74 369.28 284.17C369.87 283.29 370.42 282.5 370.95 281.76C372.01 281.66 376.31 281.17 378.12 280.14C379.93 279.11 381.85 277.35 382.12 275.21C382.202 274.71 382.178 274.198 382.049 273.708C381.919 273.218 381.688 272.76 381.37 272.366C381.052 271.971 380.654 271.648 380.203 271.418C379.751 271.188 379.256 271.056 378.75 271.03C375.7 270.95 372.45 275.38 371.55 277.95C371.47 278.18 370.65 281.79 370.7 281.78H370.77C370.25 282.447 369.7 283.207 369.12 284.06C368.05 285.61 366.86 287.37 365.7 289.37C364.423 291.515 363.271 293.732 362.25 296.01C361.098 298.558 360.171 301.201 359.48 303.91C359.485 303.943 359.485 303.977 359.48 304.01C359.48 303.12 359.18 300.63 359.14 300.44C358.58 297.78 355.91 292.96 352.88 292.66C352.374 292.622 351.866 292.69 351.389 292.862C350.911 293.033 350.475 293.303 350.109 293.654C349.743 294.005 349.455 294.429 349.264 294.899C349.073 295.368 348.983 295.873 349 296.38C349 298.53 350.73 300.55 352.35 301.77C354.18 303.16 359.03 304.25 359.42 304.33C358.792 307.108 358.348 309.924 358.09 312.76C357.94 314.41 357.83 316.07 357.74 317.76C357.67 316.99 357.6 316.3 357.58 316.21C357.01 313.54 354.34 308.73 351.31 308.42C350.804 308.382 350.296 308.45 349.819 308.622C349.341 308.793 348.905 309.063 348.539 309.414C348.173 309.765 347.885 310.189 347.694 310.659C347.503 311.128 347.413 311.633 347.43 312.14C347.43 314.29 349.16 316.31 350.78 317.54C352.4 318.77 356.55 319.79 357.64 320.05C357.64 320.69 357.58 321.33 357.56 321.97C357.44 325.05 357.34 328.13 357.15 331.14C357.08 332.2 356.97 333.25 356.87 334.29C356.81 333.61 356.74 333.03 356.73 332.95C356.16 330.28 353.49 325.47 350.46 325.16C349.954 325.122 349.446 325.19 348.969 325.362C348.491 325.533 348.055 325.803 347.689 326.154C347.323 326.505 347.035 326.929 346.844 327.399C346.653 327.868 346.563 328.373 346.58 328.88C346.58 331.04 348.31 333.05 349.93 334.28C351.55 335.51 355.3 336.44 356.59 336.74C356.46 337.81 356.32 338.88 356.14 339.9C356 340.6 355.92 341.29 355.74 341.98L355.26 343.98C354.9 345.27 354.55 346.61 354.17 347.86C353.91 348.73 353.65 349.56 353.39 350.4C353.47 349.34 353.58 347.27 353.57 347.09C353.42 344.38 351.51 339.21 348.57 338.45C348.076 338.337 347.564 338.329 347.068 338.427C346.571 338.524 346.1 338.725 345.686 339.017C345.272 339.308 344.924 339.683 344.665 340.118C344.405 340.553 344.24 341.037 344.18 341.54C343.85 343.67 345.25 345.92 346.67 347.38C348.09 348.84 352.67 350.75 353.23 350.97C352.79 352.35 352.36 353.68 351.93 354.97C350.44 359.32 349.04 362.89 348.03 365.37C348.03 365.46 347.96 365.54 347.92 365.62L349.74 366.62C349.8 366.46 349.87 366.3 349.93 366.13C350.93 363.6 352.24 359.96 353.64 355.53C354.09 354.13 354.54 352.63 354.99 351.08C356.516 351.271 358.052 351.371 359.59 351.38C360.14 353.61 362.69 357.27 363.02 357.74C361.9 358.65 360.8 359.53 359.75 360.34C356.11 363.15 352.97 365.34 350.75 366.86L350.49 367.04L352.49 368.14C354.65 366.59 357.49 364.44 360.86 361.76C362 360.84 363.21 359.83 364.43 358.76C364.88 359.14 368.53 362.24 370.69 362.86C372.64 363.42 375.29 363.6 377.01 362.31C377.425 362.02 377.775 361.646 378.037 361.213C378.298 360.779 378.466 360.295 378.528 359.792C378.59 359.289 378.546 358.779 378.398 358.295C378.25 357.81 378.002 357.362 377.67 356.98C375.61 354.73 370.16 355.48 367.67 356.62C367.53 356.69 366.03 357.62 365.09 358.18C365.59 357.75 366.09 357.34 366.58 356.89C367.58 356.02 368.58 355.11 369.64 354.13L371.14 352.66C371.65 352.17 372.14 351.6 372.64 351.07C373.78 349.81 374.87 348.48 375.94 347.12C376.72 348 379.51 351.12 381.36 351.96C383.21 352.8 385.8 353.38 387.7 352.37C388.153 352.145 388.555 351.828 388.879 351.439C389.202 351.049 389.44 350.596 389.578 350.109C389.716 349.622 389.749 349.111 389.677 348.61C389.605 348.109 389.429 347.629 389.16 347.2C387.46 344.67 381.96 344.58 379.34 345.33C379.17 345.38 377.34 346.13 376.34 346.56C376.97 345.74 377.62 344.92 378.23 344.06C380.02 341.59 381.75 339.06 383.49 336.5L385.1 334.18C385.37 334.49 388.61 338.25 390.69 339.18C392.53 340.03 395.12 340.61 397.02 339.59C397.476 339.368 397.88 339.052 398.205 338.663C398.53 338.273 398.77 337.82 398.908 337.332C399.045 336.844 399.079 336.332 399.005 335.83C398.931 335.328 398.752 334.848 398.48 334.42C396.78 331.89 391.28 331.8 388.66 332.56C388.47 332.61 385.85 333.7 385.2 334.01C386.38 332.31 387.58 330.62 388.83 329.01C390.496 326.822 392.307 324.747 394.25 322.8C394.38 322.95 397.74 326.88 399.86 327.86C401.71 328.72 404.3 329.29 406.2 328.28C406.655 328.057 407.057 327.74 407.382 327.351C407.706 326.961 407.945 326.508 408.083 326.021C408.22 325.533 408.254 325.022 408.181 324.52C408.108 324.019 407.931 323.538 407.66 323.11C405.96 320.57 400.46 320.49 397.84 321.24C397.67 321.29 395.68 322.12 394.74 322.53L394.64 322.38C396.646 320.475 398.818 318.751 401.13 317.23C402.4 316.37 403.65 315.62 404.89 314.93C405.44 315.72 407.99 319.33 409.81 320.43C411.63 321.53 414.06 322.34 416.06 321.54C416.538 321.366 416.973 321.094 417.338 320.74C417.704 320.386 417.99 319.96 418.179 319.488C418.368 319.016 418.455 318.509 418.434 318.001C418.414 317.493 418.286 316.995 418.06 316.54C416.65 313.83 411.19 313.15 408.51 313.61C408.36 313.61 406.9 314.05 405.85 314.37L407.53 313.45C409.58 312.39 411.53 311.53 413.24 310.79C414.24 310.38 415.12 310.02 415.96 309.7C416.91 310.2 420.75 312.17 422.83 312.3C424.91 312.43 427.49 312.03 428.89 310.4C429.21 310.033 429.452 309.606 429.603 309.143C429.754 308.68 429.809 308.192 429.766 307.707C429.723 307.222 429.583 306.751 429.353 306.322C429.123 305.893 428.809 305.514 428.43 305.21Z" fill="white"/>
<path d="M358.189 287.36C359.639 289.26 364.389 291.73 364.399 291.73C364.409 291.73 365.079 288.11 365.089 287.87C365.249 285.15 363.949 279.81 361.089 278.71C360.611 278.54 360.103 278.473 359.598 278.513C359.092 278.553 358.601 278.699 358.156 278.941C357.71 279.184 357.321 279.517 357.013 279.92C356.706 280.323 356.486 280.786 356.369 281.28C355.809 283.35 356.999 285.75 358.189 287.36Z" fill="white"/>
</g>
<path d="M163 236.8C163.06 236.8 162.22 232.61 162.13 232.36C161.13 229.36 157.53 224.15 154.01 224.16C153.425 224.178 152.851 224.319 152.325 224.574C151.798 224.829 151.331 225.191 150.954 225.639C150.577 226.086 150.298 226.607 150.135 227.169C149.972 227.731 149.93 228.321 150.01 228.9C150.27 231.37 152.49 233.48 154.5 234.69C156.84 236.12 163 236.8 163 236.8Z" fill="#0057FF"/>
<path d="M169.809 208.59C166.489 209.78 164.809 215.92 164.949 219.06C164.949 219.33 165.579 223.56 165.639 223.53H165.709C165.439 224.53 165.169 225.53 164.889 226.68C164.389 228.79 163.889 231.18 163.429 233.82C162.955 236.663 162.641 239.531 162.489 242.41C162.314 245.63 162.424 248.859 162.819 252.06C162.824 252.1 162.824 252.14 162.819 252.18C162.389 251.24 161.089 248.67 160.959 248.48C159.239 245.85 154.359 241.78 150.959 242.72C150.401 242.893 149.884 243.181 149.444 243.566C149.004 243.951 148.649 244.424 148.403 244.955C148.157 245.486 148.025 246.062 148.016 246.647C148.007 247.232 148.12 247.812 148.349 248.35C149.249 250.66 151.949 252.11 154.209 252.75C156.759 253.48 162.439 252.62 162.889 252.55C163.37 255.8 164.068 259.014 164.979 262.17C165.499 264.01 166.079 265.85 166.689 267.69C166.289 266.89 165.919 266.18 165.859 266.09C164.129 263.46 159.259 259.39 155.859 260.33C155.3 260.5 154.783 260.787 154.342 261.171C153.901 261.554 153.545 262.027 153.299 262.557C153.053 263.087 152.921 263.664 152.913 264.248C152.904 264.833 153.019 265.413 153.249 265.95C154.149 268.27 156.849 269.72 159.109 270.36C161.369 271 166.249 270.36 167.539 270.19C167.779 270.89 168.009 271.6 168.249 272.3C169.409 275.66 170.589 279.02 171.639 282.3C172.009 283.47 172.329 284.64 172.639 285.8C172.279 285.09 171.979 284.5 171.919 284.42C170.199 281.79 165.319 277.72 161.919 278.66C161.36 278.83 160.843 279.117 160.402 279.501C159.961 279.884 159.605 280.357 159.359 280.887C159.113 281.417 158.981 281.994 158.973 282.578C158.964 283.163 159.079 283.743 159.309 284.28C160.209 286.6 162.909 288.05 165.169 288.69C167.429 289.33 171.839 288.77 173.369 288.55C173.669 289.76 173.969 290.96 174.199 292.14C174.349 292.95 174.539 293.72 174.639 294.55C174.739 295.38 174.859 296.16 174.979 296.95C175.139 298.49 175.309 300.08 175.429 301.59C175.519 302.59 175.579 303.59 175.649 304.59C175.299 303.42 174.549 301.14 174.469 300.96C173.224 298.488 171.369 296.375 169.079 294.82C168.952 294.539 168.798 294.272 168.619 294.02C168.303 293.528 167.886 293.107 167.396 292.786C166.907 292.465 166.355 292.25 165.777 292.156C165.199 292.062 164.608 292.09 164.041 292.239C163.475 292.388 162.946 292.654 162.489 293.02C159.829 295.33 160.489 301.64 161.719 304.54C161.789 304.71 162.789 306.47 163.429 307.54C162.949 306.95 162.499 306.37 161.999 305.76C160.999 304.57 159.999 303.4 158.919 302.14L157.269 300.35C156.729 299.74 156.089 299.17 155.489 298.57C154.079 297.21 152.589 295.9 151.059 294.57C152.059 293.71 155.779 290.57 156.839 288.5C157.899 286.43 158.639 283.43 157.539 281.2C157.299 280.667 156.949 280.19 156.511 279.802C156.074 279.413 155.56 279.121 155.002 278.944C154.445 278.768 153.856 278.711 153.275 278.777C152.694 278.844 152.133 279.032 151.629 279.33C148.629 281.2 148.349 287.54 149.119 290.59C149.169 290.78 149.969 292.9 150.429 294.06C149.499 293.3 148.579 292.53 147.619 291.78C144.829 289.63 141.949 287.54 139.079 285.44C138.199 284.8 137.329 284.14 136.459 283.5C136.839 283.19 141.289 279.6 142.459 277.24C143.509 275.14 144.269 272.17 143.169 269.94C142.929 269.407 142.579 268.93 142.141 268.542C141.704 268.153 141.19 267.861 140.632 267.684C140.075 267.508 139.486 267.451 138.905 267.517C138.324 267.584 137.763 267.772 137.259 268.07C134.259 269.94 133.969 276.28 134.749 279.33C134.749 279.56 135.959 282.62 136.289 283.38C134.369 281.95 132.479 280.51 130.659 279.01C128.19 277.002 125.852 274.837 123.659 272.53C123.839 272.39 128.499 268.66 129.659 266.24C130.709 264.14 131.469 261.17 130.369 258.94C130.129 258.407 129.779 257.93 129.341 257.542C128.904 257.153 128.39 256.861 127.832 256.684C127.275 256.508 126.686 256.451 126.105 256.517C125.524 256.584 124.963 256.772 124.459 257.07C121.459 258.94 121.169 265.28 121.949 268.33C121.949 268.53 122.879 270.86 123.319 271.96L123.149 272.06C121.016 269.677 119.102 267.107 117.429 264.38C116.489 262.9 115.679 261.38 114.919 259.97C115.849 259.36 120.119 256.55 121.449 254.49C122.779 252.43 123.799 249.65 122.949 247.32C122.769 246.763 122.473 246.251 122.082 245.816C121.69 245.381 121.211 245.033 120.676 244.796C120.142 244.558 119.563 244.435 118.977 244.436C118.392 244.437 117.814 244.561 117.279 244.8C114.109 246.34 113.119 252.61 113.549 255.72C113.549 255.89 113.999 257.59 114.329 258.82C113.999 258.16 113.649 257.48 113.329 256.82C112.169 254.42 111.259 252.16 110.459 250.14C110.019 248.99 109.649 247.95 109.309 246.96C109.919 245.89 112.309 241.52 112.549 239.13C112.789 236.74 112.419 233.75 110.549 232.07C110.132 231.66 109.634 231.342 109.086 231.137C108.538 230.932 107.954 230.845 107.37 230.881C106.786 230.917 106.216 231.075 105.698 231.345C105.179 231.616 104.723 231.992 104.359 232.45C102.259 235.27 104.269 241.3 106.089 243.86C106.239 244.08 109.089 247.27 109.089 247.21V247.14C109.399 248.14 109.739 249.14 110.089 250.22C110.839 252.22 111.709 254.55 112.819 256.98C113.984 259.616 115.303 262.18 116.769 264.66C118.403 267.445 120.277 270.082 122.369 272.54L122.449 272.62C121.569 272.08 119.069 270.62 118.859 270.56C115.969 269.32 109.659 268.62 107.339 271.27C106.968 271.723 106.696 272.248 106.541 272.813C106.386 273.377 106.351 273.968 106.438 274.547C106.526 275.126 106.734 275.68 107.05 276.173C107.365 276.666 107.781 277.088 108.269 277.41C110.269 278.84 113.349 278.56 115.579 277.85C118.109 277.05 122.369 273.2 122.709 272.85C124.888 275.292 127.227 277.587 129.709 279.72C131.159 280.97 132.659 282.19 134.179 283.38L132.609 282.5C129.719 281.26 123.409 280.56 121.089 283.22C120.718 283.671 120.445 284.195 120.289 284.759C120.133 285.322 120.098 285.912 120.185 286.49C120.271 287.068 120.479 287.621 120.793 288.114C121.107 288.607 121.522 289.028 122.009 289.35C124.009 290.79 127.089 290.5 129.329 289.79C131.569 289.08 135.329 285.87 136.269 285L138.029 286.37C140.859 288.53 143.689 290.68 146.399 292.87C147.349 293.64 148.259 294.44 149.179 295.23C148.489 294.84 147.909 294.51 147.809 294.47C144.929 293.23 138.609 292.53 136.299 295.18C135.928 295.632 135.655 296.157 135.499 296.721C135.343 297.285 135.307 297.876 135.394 298.455C135.481 299.033 135.688 299.588 136.002 300.081C136.317 300.575 136.731 300.997 137.219 301.32C139.219 302.75 142.299 302.47 144.539 301.76C146.779 301.05 150.149 298.14 151.299 297.12C152.219 297.96 153.129 298.8 153.979 299.66C154.549 300.25 155.129 300.79 155.669 301.42L157.279 303.24C158.279 304.44 159.279 305.67 160.209 306.86C160.859 307.68 161.469 308.48 162.079 309.28C161.139 308.5 159.259 307.01 159.079 306.91C156.409 305.24 150.279 303.59 147.589 305.91C147.153 306.3 146.805 306.778 146.566 307.312C146.327 307.846 146.204 308.425 146.204 309.01C146.204 309.595 146.327 310.174 146.566 310.708C146.805 311.242 147.153 311.72 147.589 312.11C149.379 313.84 152.439 314.02 154.759 313.66C157.309 313.26 161.939 310.24 162.509 309.86C163.509 311.19 164.509 312.49 165.379 313.74C168.499 318.04 170.929 321.74 172.589 324.35L172.759 324.62L174.909 323.57L174.569 323.06C172.829 320.46 170.299 316.77 167.059 312.5C166.059 311.14 164.929 309.72 163.769 308.27C164.96 306.954 166.075 305.572 167.109 304.13C169.579 305.13 174.739 305.13 175.399 305.13C175.509 306.8 175.599 308.42 175.659 309.95C175.879 315.25 175.869 319.68 175.809 322.78V323.14L178.169 321.99C178.169 318.91 178.059 314.76 177.739 309.84C177.639 308.15 177.499 306.34 177.329 304.49C177.989 304.33 183.329 302.95 185.329 301.34C187.159 299.87 189.089 297.49 189.029 295.01C189.034 294.424 188.915 293.844 188.68 293.308C188.445 292.771 188.1 292.29 187.667 291.896C187.234 291.501 186.723 291.203 186.167 291.019C185.611 290.835 185.022 290.771 184.439 290.83C180.949 291.28 178.019 296.91 177.439 300.01C177.439 300.19 177.259 302.21 177.179 303.48C177.109 302.73 177.049 301.99 176.969 301.21C176.809 299.68 176.609 298.14 176.399 296.5L176.009 294.09C175.899 293.29 175.679 292.46 175.509 291.63C175.089 289.71 174.569 287.8 173.999 285.87C175.339 285.74 180.119 285.17 182.169 284C184.219 282.83 186.469 280.77 186.779 278.3C186.873 277.722 186.844 277.132 186.693 276.566C186.543 276 186.275 275.473 185.907 275.018C185.539 274.563 185.079 274.191 184.557 273.926C184.036 273.661 183.464 273.509 182.879 273.48C179.359 273.39 175.609 278.48 174.579 281.48C174.509 281.66 174.009 283.88 173.749 285.1C173.399 283.95 173.059 282.8 172.669 281.64C171.529 278.31 170.279 274.98 169.039 271.64L167.929 268.58C168.409 268.53 174.109 267.99 176.399 266.67C178.399 265.5 180.699 263.44 181.009 260.98C181.103 260.402 181.074 259.81 180.923 259.244C180.773 258.678 180.505 258.15 180.137 257.695C179.769 257.239 179.31 256.866 178.788 256.6C178.266 256.334 177.694 256.18 177.109 256.15C173.589 256.07 169.839 261.15 168.809 264.15C168.729 264.38 168.009 267.56 167.859 268.38C167.049 266.13 166.259 263.88 165.579 261.63C164.63 258.599 163.882 255.509 163.339 252.38C163.559 252.38 169.509 251.82 171.859 250.47C173.859 249.3 176.159 247.24 176.469 244.77C176.561 244.193 176.531 243.602 176.38 243.037C176.229 242.473 175.961 241.946 175.593 241.491C175.225 241.037 174.766 240.665 174.245 240.399C173.724 240.134 173.153 239.981 172.569 239.95C169.049 239.86 165.299 244.95 164.269 247.95C164.199 248.15 163.649 250.57 163.409 251.73H163.209C162.75 248.565 162.573 245.366 162.679 242.17C162.679 240.41 162.849 238.73 163.009 237.1C164.129 237.1 169.239 237.1 171.479 236.1C173.719 235.1 176.119 233.37 176.699 230.95C176.856 230.386 176.892 229.795 176.804 229.216C176.717 228.637 176.508 228.083 176.192 227.591C175.876 227.098 175.459 226.678 174.969 226.357C174.479 226.036 173.927 225.823 173.349 225.73C169.859 225.25 165.569 229.94 164.219 232.73C164.139 232.89 163.569 234.54 163.159 235.73C163.249 234.99 163.329 234.23 163.419 233.53C163.779 230.89 164.269 228.53 164.719 226.38C164.989 225.18 165.249 224.1 165.509 223.09C166.609 222.53 171.029 220.22 172.509 218.34C173.989 216.46 175.359 213.78 174.759 211.34C174.432 210.343 173.74 209.506 172.823 208.996C171.905 208.486 170.829 208.341 169.809 208.59Z" fill="#0057FF"/>
<path d="M106.15 262.87C108.9 262.76 114.4 259.94 114.41 259.94C114.42 259.94 111.41 256.88 111.23 256.71C108.77 254.71 102.87 252.41 99.9399 254.35C99.4604 254.686 99.0574 255.12 98.757 255.622C98.4567 256.125 98.2658 256.685 98.1969 257.267C98.128 257.848 98.1826 258.438 98.3571 258.997C98.5317 259.555 98.8223 260.071 99.2099 260.51C100.79 262.44 103.8 263 106.15 262.87Z" fill="#0057FF"/>
<g opacity="0.5">
<path d="M163 236.8C163.06 236.8 162.22 232.61 162.13 232.36C161.13 229.36 157.53 224.15 154.01 224.16C153.425 224.178 152.851 224.319 152.325 224.574C151.798 224.829 151.331 225.191 150.954 225.639C150.577 226.086 150.298 226.607 150.135 227.169C149.972 227.731 149.93 228.321 150.01 228.9C150.27 231.37 152.49 233.48 154.5 234.69C156.84 236.12 163 236.8 163 236.8Z" fill="white"/>
<path d="M169.809 208.59C166.489 209.78 164.809 215.92 164.949 219.06C164.949 219.33 165.579 223.56 165.639 223.53H165.709C165.439 224.53 165.169 225.53 164.889 226.68C164.389 228.79 163.889 231.18 163.429 233.82C162.955 236.663 162.641 239.531 162.489 242.41C162.314 245.63 162.424 248.859 162.819 252.06C162.824 252.1 162.824 252.14 162.819 252.18C162.389 251.24 161.089 248.67 160.959 248.48C159.239 245.85 154.359 241.78 150.959 242.72C150.401 242.893 149.884 243.181 149.444 243.566C149.004 243.951 148.649 244.424 148.403 244.955C148.157 245.486 148.025 246.062 148.016 246.647C148.007 247.232 148.12 247.812 148.349 248.35C149.249 250.66 151.949 252.11 154.209 252.75C156.759 253.48 162.439 252.62 162.889 252.55C163.37 255.8 164.068 259.014 164.979 262.17C165.499 264.01 166.079 265.85 166.689 267.69C166.289 266.89 165.919 266.18 165.859 266.09C164.129 263.46 159.259 259.39 155.859 260.33C155.3 260.5 154.783 260.787 154.342 261.171C153.901 261.554 153.545 262.027 153.299 262.557C153.053 263.087 152.921 263.664 152.913 264.248C152.904 264.833 153.019 265.413 153.249 265.95C154.149 268.27 156.849 269.72 159.109 270.36C161.369 271 166.249 270.36 167.539 270.19C167.779 270.89 168.009 271.6 168.249 272.3C169.409 275.66 170.589 279.02 171.639 282.3C172.009 283.47 172.329 284.64 172.639 285.8C172.279 285.09 171.979 284.5 171.919 284.42C170.199 281.79 165.319 277.72 161.919 278.66C161.36 278.83 160.843 279.117 160.402 279.501C159.961 279.884 159.605 280.357 159.359 280.887C159.113 281.417 158.981 281.994 158.973 282.578C158.964 283.163 159.079 283.743 159.309 284.28C160.209 286.6 162.909 288.05 165.169 288.69C167.429 289.33 171.839 288.77 173.369 288.55C173.669 289.76 173.969 290.96 174.199 292.14C174.349 292.95 174.539 293.72 174.639 294.55C174.739 295.38 174.859 296.16 174.979 296.95C175.139 298.49 175.309 300.08 175.429 301.59C175.519 302.59 175.579 303.59 175.649 304.59C175.299 303.42 174.549 301.14 174.469 300.96C173.224 298.488 171.369 296.375 169.079 294.82C168.952 294.539 168.798 294.272 168.619 294.02C168.303 293.528 167.886 293.107 167.396 292.786C166.907 292.465 166.355 292.25 165.777 292.156C165.199 292.062 164.608 292.09 164.041 292.239C163.475 292.388 162.946 292.654 162.489 293.02C159.829 295.33 160.489 301.64 161.719 304.54C161.789 304.71 162.789 306.47 163.429 307.54C162.949 306.95 162.499 306.37 161.999 305.76C160.999 304.57 159.999 303.4 158.919 302.14L157.269 300.35C156.729 299.74 156.089 299.17 155.489 298.57C154.079 297.21 152.589 295.9 151.059 294.57C152.059 293.71 155.779 290.57 156.839 288.5C157.899 286.43 158.639 283.43 157.539 281.2C157.299 280.667 156.949 280.19 156.511 279.802C156.074 279.413 155.56 279.121 155.002 278.944C154.445 278.768 153.856 278.711 153.275 278.777C152.694 278.844 152.133 279.032 151.629 279.33C148.629 281.2 148.349 287.54 149.119 290.59C149.169 290.78 149.969 292.9 150.429 294.06C149.499 293.3 148.579 292.53 147.619 291.78C144.829 289.63 141.949 287.54 139.079 285.44C138.199 284.8 137.329 284.14 136.459 283.5C136.839 283.19 141.289 279.6 142.459 277.24C143.509 275.14 144.269 272.17 143.169 269.94C142.929 269.407 142.579 268.93 142.141 268.542C141.704 268.153 141.19 267.861 140.632 267.684C140.075 267.508 139.486 267.451 138.905 267.517C138.324 267.584 137.763 267.772 137.259 268.07C134.259 269.94 133.969 276.28 134.749 279.33C134.749 279.56 135.959 282.62 136.289 283.38C134.369 281.95 132.479 280.51 130.659 279.01C128.19 277.002 125.852 274.837 123.659 272.53C123.839 272.39 128.499 268.66 129.659 266.24C130.709 264.14 131.469 261.17 130.369 258.94C130.129 258.407 129.779 257.93 129.341 257.542C128.904 257.153 128.39 256.861 127.832 256.684C127.275 256.508 126.686 256.451 126.105 256.517C125.524 256.584 124.963 256.772 124.459 257.07C121.459 258.94 121.169 265.28 121.949 268.33C121.949 268.53 122.879 270.86 123.319 271.96L123.149 272.06C121.016 269.677 119.102 267.107 117.429 264.38C116.489 262.9 115.679 261.38 114.919 259.97C115.849 259.36 120.119 256.55 121.449 254.49C122.779 252.43 123.799 249.65 122.949 247.32C122.769 246.763 122.473 246.251 122.082 245.816C121.69 245.381 121.211 245.033 120.676 244.796C120.142 244.558 119.563 244.435 118.977 244.436C118.392 244.437 117.814 244.561 117.279 244.8C114.109 246.34 113.119 252.61 113.549 255.72C113.549 255.89 113.999 257.59 114.329 258.82C113.999 258.16 113.649 257.48 113.329 256.82C112.169 254.42 111.259 252.16 110.459 250.14C110.019 248.99 109.649 247.95 109.309 246.96C109.919 245.89 112.309 241.52 112.549 239.13C112.789 236.74 112.419 233.75 110.549 232.07C110.132 231.66 109.634 231.342 109.086 231.137C108.538 230.932 107.954 230.845 107.37 230.881C106.786 230.917 106.216 231.075 105.698 231.345C105.179 231.616 104.723 231.992 104.359 232.45C102.259 235.27 104.269 241.3 106.089 243.86C106.239 244.08 109.089 247.27 109.089 247.21V247.14C109.399 248.14 109.739 249.14 110.089 250.22C110.839 252.22 111.709 254.55 112.819 256.98C113.984 259.616 115.303 262.18 116.769 264.66C118.403 267.445 120.277 270.082 122.369 272.54L122.449 272.62C121.569 272.08 119.069 270.62 118.859 270.56C115.969 269.32 109.659 268.62 107.339 271.27C106.968 271.723 106.696 272.248 106.541 272.813C106.386 273.377 106.351 273.968 106.438 274.547C106.526 275.126 106.734 275.68 107.05 276.173C107.365 276.666 107.781 277.088 108.269 277.41C110.269 278.84 113.349 278.56 115.579 277.85C118.109 277.05 122.369 273.2 122.709 272.85C124.888 275.292 127.227 277.587 129.709 279.72C131.159 280.97 132.659 282.19 134.179 283.38L132.609 282.5C129.719 281.26 123.409 280.56 121.089 283.22C120.718 283.671 120.445 284.195 120.289 284.759C120.133 285.322 120.098 285.912 120.185 286.49C120.271 287.068 120.479 287.621 120.793 288.114C121.107 288.607 121.522 289.028 122.009 289.35C124.009 290.79 127.089 290.5 129.329 289.79C131.569 289.08 135.329 285.87 136.269 285L138.029 286.37C140.859 288.53 143.689 290.68 146.399 292.87C147.349 293.64 148.259 294.44 149.179 295.23C148.489 294.84 147.909 294.51 147.809 294.47C144.929 293.23 138.609 292.53 136.299 295.18C135.928 295.632 135.655 296.157 135.499 296.721C135.343 297.285 135.307 297.876 135.394 298.455C135.481 299.033 135.688 299.588 136.002 300.081C136.317 300.575 136.731 300.997 137.219 301.32C139.219 302.75 142.299 302.47 144.539 301.76C146.779 301.05 150.149 298.14 151.299 297.12C152.219 297.96 153.129 298.8 153.979 299.66C154.549 300.25 155.129 300.79 155.669 301.42L157.279 303.24C158.279 304.44 159.279 305.67 160.209 306.86C160.859 307.68 161.469 308.48 162.079 309.28C161.139 308.5 159.259 307.01 159.079 306.91C156.409 305.24 150.279 303.59 147.589 305.91C147.153 306.3 146.805 306.778 146.566 307.312C146.327 307.846 146.204 308.425 146.204 309.01C146.204 309.595 146.327 310.174 146.566 310.708C146.805 311.242 147.153 311.72 147.589 312.11C149.379 313.84 152.439 314.02 154.759 313.66C157.309 313.26 161.939 310.24 162.509 309.86C163.509 311.19 164.509 312.49 165.379 313.74C168.499 318.04 170.929 321.74 172.589 324.35L172.759 324.62L174.909 323.57L174.569 323.06C172.829 320.46 170.299 316.77 167.059 312.5C166.059 311.14 164.929 309.72 163.769 308.27C164.96 306.954 166.075 305.572 167.109 304.13C169.579 305.13 174.739 305.13 175.399 305.13C175.509 306.8 175.599 308.42 175.659 309.95C175.879 315.25 175.869 319.68 175.809 322.78V323.14L178.169 321.99C178.169 318.91 178.059 314.76 177.739 309.84C177.639 308.15 177.499 306.34 177.329 304.49C177.989 304.33 183.329 302.95 185.329 301.34C187.159 299.87 189.089 297.49 189.029 295.01C189.034 294.424 188.915 293.844 188.68 293.308C188.445 292.771 188.1 292.29 187.667 291.896C187.234 291.501 186.723 291.203 186.167 291.019C185.611 290.835 185.022 290.771 184.439 290.83C180.949 291.28 178.019 296.91 177.439 300.01C177.439 300.19 177.259 302.21 177.179 303.48C177.109 302.73 177.049 301.99 176.969 301.21C176.809 299.68 176.609 298.14 176.399 296.5L176.009 294.09C175.899 293.29 175.679 292.46 175.509 291.63C175.089 289.71 174.569 287.8 173.999 285.87C175.339 285.74 180.119 285.17 182.169 284C184.219 282.83 186.469 280.77 186.779 278.3C186.873 277.722 186.844 277.132 186.693 276.566C186.543 276 186.275 275.473 185.907 275.018C185.539 274.563 185.079 274.191 184.557 273.926C184.036 273.661 183.464 273.509 182.879 273.48C179.359 273.39 175.609 278.48 174.579 281.48C174.509 281.66 174.009 283.88 173.749 285.1C173.399 283.95 173.059 282.8 172.669 281.64C171.529 278.31 170.279 274.98 169.039 271.64L167.929 268.58C168.409 268.53 174.109 267.99 176.399 266.67C178.399 265.5 180.699 263.44 181.009 260.98C181.103 260.402 181.074 259.81 180.923 259.244C180.773 258.678 180.505 258.15 180.137 257.695C179.769 257.239 179.31 256.866 178.788 256.6C178.266 256.334 177.694 256.18 177.109 256.15C173.589 256.07 169.839 261.15 168.809 264.15C168.729 264.38 168.009 267.56 167.859 268.38C167.049 266.13 166.259 263.88 165.579 261.63C164.63 258.599 163.882 255.509 163.339 252.38C163.559 252.38 169.509 251.82 171.859 250.47C173.859 249.3 176.159 247.24 176.469 244.77C176.561 244.193 176.531 243.602 176.38 243.037C176.229 242.473 175.961 241.946 175.593 241.491C175.225 241.037 174.766 240.665 174.245 240.399C173.724 240.134 173.153 239.981 172.569 239.95C169.049 239.86 165.299 244.95 164.269 247.95C164.199 248.15 163.649 250.57 163.409 251.73H163.209C162.75 248.565 162.573 245.366 162.679 242.17C162.679 240.41 162.849 238.73 163.009 237.1C164.129 237.1 169.239 237.1 171.479 236.1C173.719 235.1 176.119 233.37 176.699 230.95C176.856 230.386 176.892 229.795 176.804 229.216C176.717 228.637 176.508 228.083 176.192 227.591C175.876 227.098 175.459 226.678 174.969 226.357C174.479 226.036 173.927 225.823 173.349 225.73C169.859 225.25 165.569 229.94 164.219 232.73C164.139 232.89 163.569 234.54 163.159 235.73C163.249 234.99 163.329 234.23 163.419 233.53C163.779 230.89 164.269 228.53 164.719 226.38C164.989 225.18 165.249 224.1 165.509 223.09C166.609 222.53 171.029 220.22 172.509 218.34C173.989 216.46 175.359 213.78 174.759 211.34C174.432 210.343 173.74 209.506 172.823 208.996C171.905 208.486 170.829 208.341 169.809 208.59Z" fill="white"/>
<path d="M106.15 262.87C108.9 262.76 114.4 259.94 114.41 259.94C114.42 259.94 111.41 256.88 111.23 256.71C108.77 254.71 102.87 252.41 99.9399 254.35C99.4604 254.686 99.0574 255.12 98.757 255.622C98.4567 256.125 98.2658 256.685 98.1969 257.267C98.128 257.848 98.1826 258.438 98.3571 258.997C98.5317 259.555 98.8223 260.071 99.2099 260.51C100.79 262.44 103.8 263 106.15 262.87Z" fill="white"/>
</g>
<path d="M139.76 338.39C139.76 338.39 156.46 298.14 165.81 299.89C175.16 301.64 149.81 364.06 149.81 364.06C149.81 364.06 179.19 308.64 199.23 308.64C219.27 308.64 191.88 369.89 166.51 390.31C166.51 390.31 206.57 347.14 229.94 356.48C253.31 365.82 183.2 409.56 183.2 409.56C183.2 409.56 223.93 396.73 219.26 406.65C214.59 416.57 201.9 418.31 201.9 418.31L247.97 420.65H87.6797L123.74 417.15C123.74 417.15 86.3397 398.48 96.3597 390.9C106.38 383.32 128.41 399.65 128.41 399.65C128.41 399.65 90.3497 357.65 97.6897 341.89C105.03 326.13 137.76 370.48 137.76 370.48C137.76 370.48 111.05 313.89 116.39 304C121.73 294.11 139.76 338.39 139.76 338.39Z" fill="#0057FF"/>
<path opacity="0.5" d="M139.76 338.39C139.76 338.39 156.46 298.14 165.81 299.89C175.16 301.64 149.81 364.06 149.81 364.06C149.81 364.06 179.19 308.64 199.23 308.64C219.27 308.64 191.88 369.89 166.51 390.31C166.51 390.31 206.57 347.14 229.94 356.48C253.31 365.82 183.2 409.56 183.2 409.56C183.2 409.56 223.93 396.73 219.26 406.65C214.59 416.57 201.9 418.31 201.9 418.31L247.97 420.65H87.6797L123.74 417.15C123.74 417.15 86.3397 398.48 96.3597 390.9C106.38 383.32 128.41 399.65 128.41 399.65C128.41 399.65 90.3497 357.65 97.6897 341.89C105.03 326.13 137.76 370.48 137.76 370.48C137.76 370.48 111.05 313.89 116.39 304C121.73 294.11 139.76 338.39 139.76 338.39Z" fill="white"/>
<path d="M134.419 340.51C149.109 383.92 149.109 414.64 149.109 414.64C149.109 414.64 131.749 415.3 113.719 401.95" stroke="#263238" stroke-linecap="round" stroke-linejoin="round"/>
<path d="M141.77 363.89C144.789 350.912 148.801 338.184 153.77 325.82" stroke="#263238" stroke-linecap="round" stroke-linejoin="round"/>
<path d="M185.169 338.51L147.779 393.94C147.779 393.94 122.399 372.57 113.719 360.55" stroke="#263238" stroke-linecap="round" stroke-linejoin="round"/>
<path d="M148.449 407.29C148.449 407.29 187.839 388.59 203.869 377.91" stroke="#263238" stroke-linecap="round" stroke-linejoin="round"/>
<path d="M355.19 338.39C355.19 338.39 338.5 298.14 329.19 299.89C319.88 301.64 345.19 364.06 345.19 364.06C345.19 364.06 315.81 308.64 295.78 308.64C275.75 308.64 303.12 369.89 328.5 390.31C328.5 390.31 288.43 347.14 265.06 356.48C241.69 365.82 311.81 409.56 311.81 409.56C311.81 409.56 271.07 396.73 275.75 406.65C280.43 416.57 293.11 418.31 293.11 418.31L247 420.65H407.28L371.22 417.15C371.22 417.15 408.61 398.48 398.6 390.9C388.59 383.32 366.54 399.65 366.54 399.65C366.54 399.65 404.61 357.65 397.26 341.89C389.91 326.13 357.19 370.48 357.19 370.48C357.19 370.48 383.91 313.89 378.56 303.97C373.21 294.05 355.19 338.39 355.19 338.39Z" fill="#0057FF"/>
<path opacity="0.5" d="M355.19 338.39C355.19 338.39 338.5 298.14 329.19 299.89C319.88 301.64 345.19 364.06 345.19 364.06C345.19 364.06 315.81 308.64 295.78 308.64C275.75 308.64 303.12 369.89 328.5 390.31C328.5 390.31 288.43 347.14 265.06 356.48C241.69 365.82 311.81 409.56 311.81 409.56C311.81 409.56 271.07 396.73 275.75 406.65C280.43 416.57 293.11 418.31 293.11 418.31L247 420.65H407.28L371.22 417.15C371.22 417.15 408.61 398.48 398.6 390.9C388.59 383.32 366.54 399.65 366.54 399.65C366.54 399.65 404.61 357.65 397.26 341.89C389.91 326.13 357.19 370.48 357.19 370.48C357.19 370.48 383.91 313.89 378.56 303.97C373.21 294.05 355.19 338.39 355.19 338.39Z" fill="white"/>
<path d="M360.53 340.51C345.84 383.92 345.84 414.64 345.84 414.64C345.84 414.64 363.2 415.3 381.23 401.95" stroke="#263238" stroke-linecap="round" stroke-linejoin="round"/>
<path d="M353.189 363.89C350.17 350.912 346.158 338.184 341.189 325.82" stroke="#263238" stroke-linecap="round" stroke-linejoin="round"/>
<path d="M309.779 338.51L347.179 393.94C347.179 393.94 372.549 372.57 381.229 360.55" stroke="#263238" stroke-linecap="round" stroke-linejoin="round"/>
<path d="M346.51 407.29C346.51 407.29 307.11 388.59 291.08 377.91" stroke="#263238" stroke-linecap="round" stroke-linejoin="round"/>
<path d="M328.23 121.5H173.83C170.102 121.5 167.08 124.522 167.08 128.25V417.34C167.08 421.068 170.102 424.09 173.83 424.09H328.23C331.958 424.09 334.98 421.068 334.98 417.34V128.25C334.98 124.522 331.958 121.5 328.23 121.5Z" fill="#263238" stroke="#263238" stroke-miterlimit="10"/>
<path d="M262.64 139.58H241.74C241.458 139.58 241.178 139.524 240.917 139.416C240.656 139.308 240.419 139.15 240.22 138.95C240.02 138.751 239.862 138.514 239.754 138.253C239.645 137.992 239.59 137.712 239.59 137.43C239.59 137.148 239.646 136.869 239.754 136.609C239.862 136.349 240.02 136.112 240.22 135.913C240.42 135.714 240.657 135.557 240.918 135.45C241.179 135.343 241.458 135.289 241.74 135.29H262.64C263.207 135.29 263.752 135.516 264.153 135.917C264.554 136.318 264.78 136.862 264.78 137.43C264.781 137.712 264.727 137.991 264.62 138.252C264.513 138.513 264.355 138.75 264.157 138.95C263.958 139.15 263.721 139.308 263.461 139.416C263.201 139.524 262.922 139.58 262.64 139.58Z" fill="#A8CDF7"/>
<path d="M324.369 397.05H177.689V139.83H212.459L216.369 143.07C217.732 144.21 219.453 144.833 221.229 144.83H282.569C284.411 144.82 286.186 144.145 287.569 142.93L291.099 139.83H324.339L324.369 397.05Z" fill="white" stroke="#263238" stroke-width="0.94" stroke-linecap="round" stroke-linejoin="round"/>
<path d="M236.27 158.79L234.27 152.07H184.35V158.79V383.39V390.12H318.16V158.79H236.27Z" fill="#A2C7EB"/>
<path d="M313.451 170.9H189.051V382.72H313.451V170.9Z" fill="white"/>
<path d="M255.721 405C255.723 404.339 255.529 403.692 255.163 403.142C254.797 402.591 254.276 402.161 253.666 401.907C253.056 401.653 252.384 401.585 251.736 401.713C251.087 401.841 250.491 402.158 250.023 402.625C249.555 403.091 249.236 403.686 249.106 404.335C248.976 404.983 249.042 405.655 249.294 406.266C249.547 406.877 249.975 407.399 250.524 407.766C251.074 408.134 251.72 408.33 252.381 408.33C253.264 408.327 254.111 407.976 254.736 407.352C255.362 406.729 255.716 405.883 255.721 405Z" fill="#C6FF00"/>
<path d="M241.909 373.47C264.531 373.47 282.869 347.377 282.869 315.19C282.869 283.003 264.531 256.91 241.909 256.91C219.288 256.91 200.949 283.003 200.949 315.19C200.949 347.377 219.288 373.47 241.909 373.47Z" fill="#337ACC"/>
<path opacity="0.5" d="M241.909 373.47C264.531 373.47 282.869 347.377 282.869 315.19C282.869 283.003 264.531 256.91 241.909 256.91C219.288 256.91 200.949 283.003 200.949 315.19C200.949 347.377 219.288 373.47 241.909 373.47Z" fill="#A2C7EB"/>
<path d="M247.72 250.14C247.72 250.14 245.16 245.86 242.81 245.65C240.46 245.44 212.48 263 208.2 272.14C203.92 281.28 199.87 299.62 211.2 317.27C222.25 334.44 239.57 333.87 248.55 333.01C257.53 332.15 263.55 329.23 272.65 321.93C281.75 314.63 290.1 303.88 291.31 296.58C292.52 289.28 288.07 285.22 285.23 284.21C282.39 283.2 265.96 283.4 253.99 271.21C242.02 259.02 247.72 250.14 247.72 250.14Z" fill="#263238" stroke="#263238" stroke-linecap="round" stroke-linejoin="round"/>
<path d="M251.35 244.58C251.35 244.58 244.09 247.36 239.6 252.27C235.11 257.18 232.34 264.88 232.13 276.2C231.92 287.52 235.55 300.33 249.64 305.89C263.73 311.45 276.34 307.17 280.4 303.32C284.46 299.47 289.4 288.59 289.4 288.59C289.4 288.59 266.98 294.59 256.3 281.96C245.62 269.33 251.35 244.58 251.35 244.58Z" fill="white" stroke="#263238" stroke-linecap="round" stroke-linejoin="round"/>
<path d="M376.829 252.47C371.349 244.25 358.269 241.82 347.929 238.47C337.589 235.12 331.499 228.47 334.239 212.01C336.979 195.55 351.239 168.81 350.969 163.94C350.699 159.07 301.689 159.38 297.119 160.94C292.549 162.5 291.649 162.15 287.389 167.63C285.028 170.589 282.892 173.721 280.999 177L286.279 165.9H286.669C287.243 164.441 288.057 163.089 289.079 161.9C293.725 156.51 296.358 149.674 296.529 142.56C296.729 132.09 289.279 133.1 287.869 136.32C286.459 139.54 278.209 150.62 275.789 153.64C273.369 156.66 268.339 164.92 268.339 164.92L262.749 184.3C262.749 184.3 261.529 190.08 254.529 211.99C247.529 233.9 250.579 244 250.579 244C250.579 244 248.749 243.09 244.489 256.17C240.229 269.25 242.059 285.98 249.659 293.89C257.259 301.8 267.309 301.5 278.569 296.94C285.496 293.972 291.264 288.825 294.999 282.28C294.999 282.28 306.869 279.28 315.689 272.55C324.509 265.82 331.199 258.86 343.999 259.47C356.799 260.08 371.379 267.38 376.249 267.07C381.119 266.76 382.309 260.68 376.829 252.47Z" fill="white"/>
<path d="M298.358 224C264.508 229.05 253.868 237.13 257.248 248.25C257.95 250.455 259.089 252.496 260.598 254.25C260.598 254.46 260.598 254.69 260.658 254.93C260.658 254.93 261.258 255.29 262.158 255.93C263.343 257.075 264.625 258.115 265.988 259.04C268.208 261.15 270.198 263.79 269.788 266.24C268.918 271.46 256.788 280.58 250.658 281.02C244.528 281.46 242.398 275.37 241.528 281.89C240.658 288.41 254.138 304.49 267.178 302.75C280.218 301.01 291.088 282.75 291.088 282.75C291.088 282.75 289.348 279.75 298.088 270.58C303.828 264.58 312.038 261.93 318.328 259.47C324.267 257.723 330.055 255.503 335.638 252.83C351.108 245.25 369.488 250.31 369.488 250.31C369.488 250.31 332.208 218.89 298.358 224Z" fill="#337ACC"/>
<path opacity="0.5" d="M298.358 224C264.508 229.05 253.868 237.13 257.248 248.25C257.95 250.455 259.089 252.496 260.598 254.25C260.598 254.46 260.598 254.69 260.658 254.93C260.658 254.93 261.258 255.29 262.158 255.93C263.343 257.075 264.625 258.115 265.988 259.04C268.208 261.15 270.198 263.79 269.788 266.24C268.918 271.46 256.788 280.58 250.658 281.02C244.528 281.46 242.398 275.37 241.528 281.89C240.658 288.41 254.138 304.49 267.178 302.75C280.218 301.01 291.088 282.75 291.088 282.75C291.088 282.75 289.348 279.75 298.088 270.58C303.828 264.58 312.038 261.93 318.328 259.47C324.267 257.723 330.055 255.503 335.638 252.83C351.108 245.25 369.488 250.31 369.488 250.31C369.488 250.31 332.208 218.89 298.358 224Z" fill="white"/>
<path d="M376.829 252.47C371.349 244.25 358.269 241.82 347.929 238.47C337.589 235.12 331.499 228.47 334.239 212.01C336.979 195.55 351.239 168.81 350.969 163.94C350.699 159.07 301.689 159.38 297.119 160.94C292.549 162.5 291.649 162.15 287.389 167.63C285.028 170.589 282.892 173.721 280.999 177L286.279 165.9H286.669C287.243 164.441 288.057 163.089 289.079 161.9C293.725 156.51 296.358 149.674 296.529 142.56C296.729 132.09 289.279 133.1 287.869 136.32C286.459 139.54 278.209 150.62 275.789 153.64C273.369 156.66 268.339 164.92 268.339 164.92L262.749 184.3C262.749 184.3 261.529 190.08 254.529 211.99C247.529 233.9 250.579 244 250.579 244C250.579 244 248.749 243.09 244.489 256.17C240.229 269.25 242.059 285.98 249.659 293.89C257.259 301.8 267.309 301.5 278.569 296.94C285.496 293.972 291.264 288.825 294.999 282.28C294.999 282.28 306.869 279.28 315.689 272.55C324.509 265.82 331.199 258.86 343.999 259.47C356.799 260.08 371.379 267.38 376.249 267.07C381.119 266.76 382.309 260.68 376.829 252.47Z" stroke="#263238" stroke-linecap="round" stroke-linejoin="round"/>
<path d="M376.999 267C376.999 267 377.639 264.44 370.379 261C363.119 257.56 360.129 259.93 360.129 261.64C360.129 263.35 375.879 267 376.999 267Z" fill="white" stroke="#263238" stroke-linecap="round" stroke-linejoin="round"/>
<path d="M308.209 149.83L289.889 163.93H314.459C314.459 163.93 314.459 146.61 308.209 149.83Z" fill="white" stroke="#263238" stroke-linecap="round" stroke-linejoin="round"/>
<path d="M285.229 251.53C287.831 248.589 291.074 246.286 294.708 244.8" stroke="#263238" stroke-linecap="round" stroke-linejoin="round"/>
<path d="M281.898 257C282.179 256.187 282.545 255.406 282.988 254.67" stroke="#263238" stroke-linecap="round" stroke-linejoin="round"/>
<path d="M274.599 276C273.619 275.138 272.704 274.205 271.859 273.21" stroke="#263238" stroke-linecap="round" stroke-linejoin="round"/>
<path d="M294.999 282.28C289.349 282.923 283.641 281.753 278.699 278.94" stroke="#263238" stroke-linecap="round" stroke-linejoin="round"/>
<path d="M363.5 162.72H271.18C258.43 162.72 248.1 172.59 248.1 184.72V228.22C248.1 238.8 255.91 247.64 266.33 249.77L261.46 264.18L284 250.3H363.5C376.24 250.3 386.58 240.43 386.58 228.3V184.8C386.58 172.59 376.24 162.72 363.5 162.72Z" fill="#337ACC" stroke="#263238" stroke-width="2" stroke-miterlimit="10"/>
<path d="M263.129 192.01H366.909" stroke="white" stroke-width="2.06" stroke-miterlimit="10" stroke-linecap="round"/>
<path d="M263.129 202.7H366.909" stroke="white" stroke-width="2.06" stroke-miterlimit="10" stroke-linecap="round"/>
<path d="M263.129 213.38H366.909" stroke="white" stroke-width="2.06" stroke-miterlimit="10" stroke-linecap="round"/>
<path d="M263.129 224.06H366.909" stroke="white" stroke-width="2.06" stroke-miterlimit="10" stroke-linecap="round"/>
<path d="M385.739 200.85C392.847 200.85 398.609 195.348 398.609 188.56C398.609 181.772 392.847 176.27 385.739 176.27C378.631 176.27 372.869 181.772 372.869 188.56C372.869 195.348 378.631 200.85 385.739 200.85Z" fill="#263238"/>
<path d="M384.739 197.24C384.316 196.395 384.126 195.453 384.189 194.51V184.51L381.929 185.77C381.686 185.911 381.41 185.986 381.129 185.99C380.918 185.992 380.709 185.95 380.516 185.865C380.323 185.781 380.15 185.656 380.009 185.5C379.715 185.194 379.553 184.784 379.559 184.36C379.552 184.072 379.636 183.788 379.799 183.55C380.032 183.271 380.309 183.031 380.619 182.84L384.999 180.6C385.488 180.249 386.06 180.032 386.659 179.97C388.149 179.97 388.889 181.09 388.889 183.33V194.86C388.889 197.05 388.109 198.14 386.539 198.14C386.185 198.171 385.829 198.104 385.512 197.945C385.194 197.786 384.926 197.542 384.739 197.24Z" fill="white"/>
<path d="M336.359 156.28C336.359 156.28 336.769 164.33 344.019 168.16C351.269 171.99 360.529 171.16 360.729 166.35C360.929 161.54 355.289 156.48 351.469 150.03C347.649 143.58 339.179 147.22 335.559 151.65" fill="white"/>
<path d="M336.359 156.28C336.359 156.28 336.769 164.33 344.019 168.16C351.269 171.99 360.529 171.16 360.729 166.35C360.929 161.54 355.289 156.48 351.469 150.03C347.649 143.58 339.179 147.22 335.559 151.65" stroke="#263238" stroke-linecap="round" stroke-linejoin="round"/>
<path d="M348.849 162.72C348.239 165.94 350.459 167.72 352.469 168.72C354.479 169.72 358.469 169.13 360.729 166.31C360.829 163.95 359.539 161.55 357.729 158.96C355.209 159.28 349.319 160.2 348.849 162.72Z" fill="white" stroke="#263238" stroke-linecap="round" stroke-linejoin="round"/>
<path d="M321.259 156.28C321.259 156.28 321.659 164.33 328.909 168.16C336.159 171.99 345.429 171.16 345.629 166.35C345.829 161.54 340.189 156.48 336.359 150.03C332.529 143.58 324.079 147.22 320.449 151.65" fill="white"/>
<path d="M321.259 156.28C321.259 156.28 321.659 164.33 328.909 168.16C336.159 171.99 345.429 171.16 345.629 166.35C345.829 161.54 340.189 156.48 336.359 150.03C332.529 143.58 324.079 147.22 320.449 151.65" stroke="#263238" stroke-linecap="round" stroke-linejoin="round"/>
<path d="M333.749 162.72C333.139 165.94 335.359 167.72 337.369 168.72C339.379 169.72 343.369 169.13 345.629 166.31C345.719 163.95 344.429 161.55 342.629 158.96C340.109 159.28 334.219 160.2 333.749 162.72Z" fill="white" stroke="#263238" stroke-linecap="round" stroke-linejoin="round"/>
<path d="M307.208 156.28C307.208 156.28 307.608 164.33 314.858 168.16C322.108 171.99 331.368 171.16 331.568 166.35C331.768 161.54 326.138 156.48 322.308 150.03C318.478 143.58 310.018 147.22 306.398 151.65" fill="white"/>
<path d="M307.208 156.28C307.208 156.28 307.608 164.33 314.858 168.16C322.108 171.99 331.368 171.16 331.568 166.35C331.768 161.54 326.138 156.48 322.308 150.03C318.478 143.58 310.018 147.22 306.398 151.65" stroke="#263238" stroke-linecap="round" stroke-linejoin="round"/>
<path d="M319.69 162.72C319.09 165.94 321.3 167.72 323.32 168.72C325.34 169.72 329.32 169.13 331.57 166.31C331.67 163.95 330.38 161.55 328.57 158.96C326.05 159.28 320.16 160.2 319.69 162.72Z" fill="white" stroke="#263238" stroke-linecap="round" stroke-linejoin="round"/>
<path d="M250.58 244C250.58 244 251.14 256.38 257.97 264.71" stroke="#263238" stroke-linecap="round" stroke-linejoin="round"/>
<path d="M230.699 295.67C230.699 298.19 229.019 300.23 226.949 300.23C224.879 300.23 223.199 298.23 223.199 295.67C223.199 293.11 224.879 291.11 226.949 291.11C229.019 291.11 230.699 293.15 230.699 295.67Z" fill="white"/>
<path d="M221.369 301.35C221.369 303.87 219.689 305.91 217.619 305.91C215.549 305.91 213.869 303.91 213.869 301.35C213.869 298.79 215.549 296.78 217.619 296.78C219.689 296.78 221.369 298.83 221.369 301.35Z" stroke="#263238" stroke-linecap="round" stroke-linejoin="round"/>
</svg>
